<?xml version="1.0" encoding="utf-8"?><svg xmlns="http://www.w3.org/2000/svg" xmlns:xlink="http://www.w3.org/1999/xlink"><symbol viewBox="0 0 32 32" fill="none" id="css3" xmlns="http://www.w3.org/2000/svg"><path d="M6 28 4 3h24l-2 25-10 3-10-3Z" fill="#1172B8"/><path d="M26 5H16v24.5l8-2.5 2-22Z" fill="#3AD"/><path d="M19.5 17.5h-10L9 14l8-2.5H9l-.5-3H24l-.5 3.5-6.5 2.5h6L22 24l-6 2-6-2-.5-5h3l.5 2.5 3 1 3-1 .5-4Z" fill="#fff"/></symbol><symbol viewBox="0 0 16 16" fill="none" id="docker" xmlns="http://www.w3.org/2000/svg"><path fill="#2396ED" d="m12.342 4.536.15-.227.262.159.116.083c.28.216.869.768.996 1.684.223-.04.448-.06.673-.06.534 0 .893.124 1.097.227l.105.057.068.045.191.156-.066.2a2.044 2.044 0 0 1-.47.73c-.29.299-.8.652-1.609.698l-.178.005h-.148c-.37.977-.867 2.078-1.702 3.066a7.081 7.081 0 0 1-1.74 1.488 7.941 7.941 0 0 1-2.549.968c-.644.125-1.298.187-1.953.185-1.45 0-2.73-.288-3.517-.792-.703-.449-1.243-1.182-1.606-2.177a8.25 8.25 0 0 1-.461-2.83.516.516 0 0 1 .432-.516l.068-.005h10.54l.092-.007.149-.016c.256-.034.646-.11.92-.27-.328-.543-.421-1.178-.268-1.854a3.3 3.3 0 0 1 .3-.81l.108-.187zM2.89 5.784l.04.007a.127.127 0 0 1 .077.082l.006.04v1.315l-.006.041a.127.127 0 0 1-.078.082l-.039.006H1.478a.124.124 0 0 1-.117-.088l-.007-.04V5.912l.007-.04a.127.127 0 0 1 .078-.083l.039-.006H2.89zm1.947 0 .039.007a.127.127 0 0 1 .078.082l.006.04v1.315l-.007.041a.127.127 0 0 1-.078.082l-.039.006H3.424a.125.125 0 0 1-.117-.088L3.3 7.23V5.913a.13.13 0 0 1 .085-.123l.039-.007h1.413zm1.976 0 .039.007a.127.127 0 0 1 .077.082l.007.04v1.315l-.007.041a.127.127 0 0 1-.078.082l-.039.006H5.4a.124.124 0 0 1-.117-.088l-.006-.04V5.912l.006-.04a.127.127 0 0 1 .078-.083l.039-.006h1.413zm1.952 0 .039.007a.127.127 0 0 1 .078.082l.007.04v1.315a.13.13 0 0 1-.085.123l-.04.006H7.353a.124.124 0 0 1-.117-.088l-.006-.04V5.912l.006-.04a.127.127 0 0 1 .078-.083l.04-.006h1.412zm1.97 0 .039.007a.127.127 0 0 1 .078.082l.006.04v1.315a.13.13 0 0 1-.085.123l-.039.006H9.322a.124.124 0 0 1-.117-.088l-.006-.04V5.912l.006-.04a.127.127 0 0 1 .078-.083l.04-.006h1.411zm-5.9-1.892.04.007a.127.127 0 0 1 .077.081l.007.041v1.315a.13.13 0 0 1-.085.123l-.039.007H3.424a.125.125 0 0 1-.117-.09l-.007-.04V4.021a.13.13 0 0 1 .085-.122l.039-.007h1.412zm1.976 0 .04.007a.127.127 0 0 1 .077.081l.007.041v1.315a.13.13 0 0 1-.085.123l-.039.007H5.4a.125.125 0 0 1-.117-.09l-.006-.04V4.021l.006-.04a.127.127 0 0 1 .078-.082l.039-.007h1.412zm1.953 0c.054 0 .1.037.117.088l.007.041v1.315a.13.13 0 0 1-.085.123l-.04.007h-1.41a.125.125 0 0 1-.117-.09l-.006-.04V4.021l.006-.04a.127.127 0 0 1 .078-.082l.04-.007h1.412zm0-1.892c.054 0 .1.037.117.088l.007.04v1.316a.13.13 0 0 1-.085.123l-.04.006h-1.41a.124.124 0 0 1-.117-.088l-.006-.04V2.128l.006-.04a.127.127 0 0 1 .078-.082L7.353 2h1.412z"/></symbol><symbol viewBox="-155 0 566 566" preserveAspectRatio="xMidYMid" id="gulp" xmlns="http://www.w3.org/2000/svg"><path d="m197.28 548.749 5.427-90.43 14.985-25.58s-34.106 13.952-91.205 13.952c-57.1 0-90.689-13.694-90.689-13.694l16.794 27.904 5.941 87.848c0 9.418 31.059 17.052 69.374 17.052 38.313 0 69.373-7.634 69.373-17.052M180.161 126.454l11.391-45.025 63.081-66.376L238.007.892l-66.784 70.707-13.226 53.793a886.14 886.14 0 0 0-29.873-.497c-70.336 0-127.355 8.016-127.355 17.902 0 9.887 57.019 17.902 127.355 17.902 70.335 0 127.353-8.015 127.353-17.902 0-7.28-30.924-13.546-75.316-16.343" fill="#D34A47"/><path d="M173.535 151.669s-2.467.553-9.724.584c-7.259.03-12.413-.047-14.466-1.917-.552-.502-.854-1.499-.851-2.174.006-1.285.918-2.042 2.08-2.516l1.099 1.724c-.478.165-.751.36-.752.568-.004.976 7.422 1.644 13.102 1.572 5.681-.07 12.545-.538 12.551-1.5 0-.291-.519-.565-1.422-.781l1.094-1.712c1.472.457 2.757 1.34 2.754 2.868-.014 2.598-3.32 2.993-5.465 3.284" fill="#FFF"/><path d="M254.509 15.184c1.586-1.832-.821-6.518-5.376-10.465C244.576.774 239.596-.94 238.007.892c-1.587 1.832.821 6.518 5.378 10.463 4.555 3.946 9.537 5.662 11.124 3.829M194.246 327.865c-1.495-14.384 31.462-35.216 23.004-35.883-18.208 1.041-27.27 21.338-36.431 42.596-3.357 7.791-14.844 41.013-22.378 36.923-7.532-4.088 9.765-31.407 14.613-47.631-5.594 4.102-26.109 20.041-31.396 5.114-8.5 7.219-26.663 11.13-24.614-7.833-4.522 8.01-14.671 19.193-26.853 14.546-15.998-6.101 9.27-57.062 15.553-54.491 6.284 2.57-1.268 14.179-3.246 18.687-4.35 9.921-9.375 22.393-6.018 24.946 5.751 4.374 21.401-16.547 21.749-17.007 2.927-3.867 11.266-29.166 17.987-26.261 6.721 2.905-16.764 36.308-7.983 42.937 1.771 1.338 9.017-.825 13.425-5.594 2.852-3.085 1.871-9.918 11.378-32.59 9.507-22.671 17.98-50.905 24.5-48.754 6.52 2.15 1.146 16.641-1.193 22.043-10.976 25.354-29.956 67.241-21.005 64.07 8.951-3.17 13.612-3.356 22.377-13.613 8.765-10.257 8.361-27.152 14.203-26.793 5.844.36 4.863 5.777 3.446 9.902 5.75-6.58 27.256-20.438 32.448-6.713 6.15 16.249-30.769 39.72-21.564 38.523 8.975-1.167 23.515-10.376 29.723-18.749l17.088-153.626s-17.195 14.23-126.589 14.23c-109.395 0-124.811-13.934-124.811-13.934l14.548 140.224c7.722-21.947 26.059-66.339 54.963-64.849 13.148.678 30.7 25.995 15.665 26.853-6.364.362-7.01-12.637-14.546-14.546-5.438-1.378-13.009 3.043-17.902 7.833-9.758 9.55-30.745 47.229-27.972 66.014 3.533 23.949 33.048-8.322 38.042-17.903 3.517-6.749 5.893-26.745 13.585-24.647 7.693 2.098-.671 22.734-6.247 40.979-6.264 20.487-9.557 42.098-17.408 39.612-7.852-2.484 4.938-28.932 4.475-33.566-7.38 6.809-20.976 24.047-38.37 15.515l9.035 87.078s24.013 18.973 96.35 18.973c72.337 0 97.239-18.677 97.239-18.677l11.219-100.857c-9.179 8.938-38.229 24.81-40.089 6.919" fill="#D34A47"/></symbol><symbol viewBox="0 0 32 32" fill="none" id="html5" xmlns="http://www.w3.org/2000/svg"><path d="M6 28 4 3h24l-2 25-10 3-10-3Z" fill="#E44D26"/><path d="M26 5H16v24.5l8-2.5 2-22Z" fill="#F16529"/><path d="M9.5 17.5 8.5 8H24l-.5 3h-12l.5 3.5h11L22 24l-6 2-6-2-.5-5h3l.5 2.5 3 1 3-1 .5-4h-10Z" fill="#fff"/></symbol><symbol viewBox="0 0 32 32" id="js" xmlns="http://www.w3.org/2000/svg"><path style="fill:#f5de19" d="M2 2h28v28H2z"/><path d="M20.809 23.875a2.866 2.866 0 0 0 2.6 1.6c1.09 0 1.787-.545 1.787-1.3 0-.9-.716-1.222-1.916-1.747l-.658-.282c-1.9-.809-3.16-1.822-3.16-3.964 0-1.973 1.5-3.476 3.853-3.476a3.889 3.889 0 0 1 3.742 2.107L25 18.128A1.789 1.789 0 0 0 23.311 17a1.145 1.145 0 0 0-1.259 1.128c0 .789.489 1.109 1.618 1.6l.658.282c2.236.959 3.5 1.936 3.5 4.133 0 2.369-1.861 3.667-4.36 3.667a5.055 5.055 0 0 1-4.795-2.691Zm-9.295.228c.413.733.789 1.353 1.693 1.353.864 0 1.41-.338 1.41-1.653v-8.947h2.631v8.982c0 2.724-1.6 3.964-3.929 3.964a4.085 4.085 0 0 1-3.947-2.4Z"/></symbol><symbol viewBox="-19.5 0 295 295" preserveAspectRatio="xMidYMid" id="linux" xmlns="http://www.w3.org/2000/svg"><defs><linearGradient x1="48.548%" y1="115.276%" x2="51.047%" y2="41.364%" id="fb"><stop stop-color="#FFEED7" offset="0%"/><stop stop-color="#BDBFC2" offset="100%"/></linearGradient><linearGradient x1="54.407%" y1="2.404%" x2="46.175%" y2="90.542%" id="fc"><stop stop-color="#FFF" stop-opacity=".8" offset="0%"/><stop stop-color="#FFF" stop-opacity="0" offset="100%"/></linearGradient><linearGradient x1="51.86%" y1="88.248%" x2="47.947%" y2="9.748%" id="fd"><stop stop-color="#FFEED7" offset="0%"/><stop stop-color="#BDBFC2" offset="100%"/></linearGradient><linearGradient x1="49.925%" y1="85.49%" x2="49.924%" y2="13.811%" id="fe"><stop stop-color="#FFEED7" offset="0%"/><stop stop-color="#BDBFC2" offset="100%"/></linearGradient><linearGradient x1="53.901%" y1="3.102%" x2="45.956%" y2="93.895%" id="ff"><stop stop-color="#FFF" stop-opacity=".65" offset="0%"/><stop stop-color="#FFF" stop-opacity="0" offset="100%"/></linearGradient><linearGradient x1="45.593%" y1="5.475%" x2="54.811%" y2="93.524%" id="fg"><stop stop-color="#FFF" stop-opacity=".65" offset="0%"/><stop stop-color="#FFF" stop-opacity="0" offset="100%"/></linearGradient><linearGradient x1="49.984%" y1="89.845%" x2="49.984%" y2="40.632%" id="fh"><stop stop-color="#FFEED7" offset="0%"/><stop stop-color="#BDBFC2" offset="100%"/></linearGradient><linearGradient x1="53.505%" y1="99.975%" x2="42.746%" y2="23.545%" id="fi"><stop stop-color="#FFEED7" offset="0%"/><stop stop-color="#BDBFC2" offset="100%"/></linearGradient><linearGradient x1="49.841%" y1="13.229%" x2="50.241%" y2="94.673%" id="fj"><stop stop-color="#FFF" stop-opacity=".8" offset="0%"/><stop stop-color="#FFF" stop-opacity="0" offset="100%"/></linearGradient><linearGradient x1="49.927%" y1="37.327%" x2="50.727%" y2="92.782%" id="fk"><stop stop-color="#FFF" stop-opacity=".65" offset="0%"/><stop stop-color="#FFF" stop-opacity="0" offset="100%"/></linearGradient><linearGradient x1="49.876%" y1="2.299%" x2="49.876%" y2="81.204%" id="fl"><stop stop-color="#FFF" stop-opacity=".65" offset="0%"/><stop stop-color="#FFF" stop-opacity="0" offset="100%"/></linearGradient><linearGradient x1="49.833%" y1="2.272%" x2="49.824%" y2="71.799%" id="fm"><stop stop-color="#FFF" stop-opacity=".65" offset="0%"/><stop stop-color="#FFF" stop-opacity="0" offset="100%"/></linearGradient><linearGradient x1="53.467%" y1="48.921%" x2="38.949%" y2="98.1%" id="fn"><stop stop-color="#FFA63F" offset="0%"/><stop stop-color="#FF0" offset="100%"/></linearGradient><linearGradient x1="52.373%" y1="143.009%" x2="47.579%" y2="-64.622%" id="fo"><stop stop-color="#FFEED7" offset="0%"/><stop stop-color="#BDBFC2" offset="100%"/></linearGradient><linearGradient x1="30.581%" y1="34.024%" x2="65.887%" y2="89.175%" id="fp"><stop stop-color="#FFA63F" offset="0%"/><stop stop-color="#FF0" offset="100%"/></linearGradient><linearGradient x1="59.572%" y1="-17.216%" x2="48.361%" y2="66.118%" id="fq"><stop stop-color="#FFF" stop-opacity=".65" offset="0%"/><stop stop-color="#FFF" stop-opacity="0" offset="100%"/></linearGradient><linearGradient x1="47.769%" y1="1.565%" x2="51.373%" y2="104.313%" id="fr"><stop stop-color="#FFF" stop-opacity=".65" offset="0%"/><stop stop-color="#FFF" stop-opacity="0" offset="100%"/></linearGradient><linearGradient x1="43.55%" y1="4.533%" x2="57.114%" y2="92.827%" id="fs"><stop stop-color="#FFF" stop-opacity=".65" offset="0%"/><stop stop-color="#FFF" stop-opacity="0" offset="100%"/></linearGradient><linearGradient x1="49.733%" y1="17.609%" x2="50.558%" y2="99.385%" id="ft"><stop stop-color="#FFA63F" offset="0%"/><stop stop-color="#FF0" offset="100%"/></linearGradient><linearGradient x1="50.17%" y1="2.89%" x2="49.68%" y2="94.17%" id="fu"><stop stop-color="#FFF" stop-opacity=".65" offset="0%"/><stop stop-color="#FFF" stop-opacity="0" offset="100%"/></linearGradient><filter x="-50%" y="-50%" width="200%" height="200%" filterUnits="objectBoundingBox" id="fa"><feOffset in="SourceAlpha" result="shadowOffsetOuter1"/><feGaussianBlur stdDeviation="6.5" in="shadowOffsetOuter1" result="shadowBlurOuter1"/></filter></defs><g fill="none"><path d="M235.125 249.359c0 17.355-52.617 31.497-117.54 31.497S.044 266.806.044 249.359c0-17.356 52.618-31.498 117.54-31.498 64.924 0 117.45 14.142 117.541 31.498Z" fill="#000" fill-opacity=".2" filter="url(#fa)" transform="translate(10)"/><path d="M63.213 215.474c-11.387-16.346-13.591-69.606 12.947-102.39C89.292 97.383 92.69 86.455 93.7 71.67c.734-16.805-11.846-66.851 35.537-70.616 48.027-3.857 45.364 43.526 45.088 68.596-.183 21.12 15.52 33.15 26.355 49.68 19.927 30.303 18.274 82.461-3.765 110.745-27.916 35.354-51.791 20.018-67.678 21.304-29.752 1.745-30.762 17.54-66.024-35.905Z" fill="#000"/><path d="M169.1 122.451c8.265 7.622 29.661 41.69-4.224 62.995-11.937 7.438 10.653 35.721 21.488 22.039 19.193-24.61 6.98-63.913-4.591-77.963-7.714-9.917-19.651-13.774-12.672-7.07Z" fill="url(#fb)" transform="translate(10)"/><path d="M176.805 117.86c13.59 11.02 38.292 49.587 2.204 74.748-11.846 7.806 10.468 32.508 23.049 19.927 43.618-43.894-1.102-94.308-16.53-111.664-13.774-15.151-25.987 3.49-8.723 16.989Z" stroke="#000" stroke-width=".977" fill="#000"/><path d="M147.245 25.02c-.459 12.581-14.325 23.51-30.946 24.52-16.621 1.01-29.66-8.54-29.202-21.121.46-12.581 14.326-23.509 30.947-24.519 16.62-.918 29.66 8.54 29.201 21.12Z" fill="url(#fc)" transform="translate(10)"/><path d="M107.483 54.957c.46 8.173-3.397 15.06-8.723 15.335-5.326.276-10.01-6.06-10.469-14.233-.459-8.173 3.398-15.06 8.724-15.335 5.326-.276 10.01 6.06 10.468 14.233Z" fill="url(#fd)" transform="translate(10)"/><path d="M117.125 55.6c.184 9.458 6.337 16.988 13.683 16.805 7.346-.184 13.131-7.99 12.948-17.54-.184-9.458-6.336-16.988-13.683-16.804-7.346.183-13.223 8.08-12.948 17.539Z" fill="url(#fe)" transform="translate(10)"/><path d="M133.186 57.712c-.092 5.234 2.48 9.458 5.877 9.458 3.306 0 6.153-4.224 6.245-9.366.091-5.234-2.48-9.459-5.878-9.459-3.397 0-6.152 4.225-6.244 9.367ZM111.974 57.804c.459 4.316-1.194 7.989-3.582 8.356-2.387.276-4.683-2.938-5.142-7.254-.46-4.316 1.194-7.99 3.581-8.357 2.388-.275 4.684 2.939 5.143 7.255Z" fill="#000"/><path d="M124.564 54.773c-.276 2.939 1.102 5.326 3.03 5.51 1.928.184 3.765-2.112 4.04-4.959.276-2.938-1.102-5.326-3.03-5.51-1.928-.183-3.765 2.113-4.04 4.96Z" fill="url(#ff)" transform="translate(10)"/><path d="M99.953 55.508c.276 2.388-.734 4.5-2.203 4.683-1.47.184-2.847-1.653-3.123-4.132-.275-2.388.735-4.5 2.204-4.683 1.47-.184 2.847 1.744 3.122 4.132Z" fill="url(#fg)" transform="translate(10)"/><path d="M71.027 145.684c6.52-14.785 20.386-40.772 20.662-60.883 0-15.978 47.843-19.835 51.7-3.856 3.856 15.978 13.59 39.853 19.834 51.424 6.245 11.478 24.335 48.118 5.051 80.074-17.356 28.284-69.973 50.69-98.073-3.856-9.55-18.917-7.806-42.333.826-62.903Z" fill="url(#fh)" transform="translate(10)"/><path d="M65.15 134.664c-5.601 10.56-17.172 38.293 11.112 53.445 30.395 16.162 30.303 49.312-6.245 33.517-33.425-14.233-18.641-71.902-9.274-85.676 6.06-9.642 15.243-21.488 4.407-1.286Z" fill="url(#fi)" transform="translate(10)"/><path d="M79.925 122.727c-8.907 14.509-30.211 48.669-1.652 66.484 38.384 23.6 27.548 47.108-7.53 25.895-49.404-29.568-5.97-89.257 13.774-112.03 22.59-25.529 4.316 4.683-4.592 19.65Z" stroke="#000" stroke-width="1.25" fill="#000"/><path d="M156.428 151.285c0 16.162-15.519 37.1-42.15 36.916-27.456.183-39.118-20.754-39.118-36.916 0-16.161 18.182-29.293 40.588-29.293 22.498.092 40.68 13.132 40.68 29.293Z" fill="url(#fj)" transform="translate(10)"/><path d="M141.92 100.504c-.276 16.713-11.204 20.662-24.978 20.662-13.775 0-23.784-2.48-24.978-20.662 0-11.387 11.203-17.998 24.978-17.998 13.774-.092 24.977 6.52 24.977 17.998Z" fill="url(#fk)" transform="translate(10)"/><path d="M58.63 126.216c9-13.682 28.008-34.711 3.582 2.939-19.835 31.038-7.346 50.965-.918 56.474 18.549 16.53 17.814 27.64 3.214 18.917-31.314-18.641-24.794-50.047-5.878-78.33Z" fill="url(#fl)" transform="translate(10)"/><path d="M188.936 131.818c-7.806-16.07-32.6-56.842 1.193-9.459 30.763 42.884 9.183 72.729 5.326 75.667-3.856 2.939-16.804 8.908-13.04-1.469 3.858-10.377 22.958-30.028 6.52-64.74Z" fill="url(#fm)" transform="translate(10)"/><path d="M51.835 258.542c-20.57-10.928-50.414 2.112-39.578-27.457 2.204-6.704-3.214-16.805.275-23.325 4.133-7.989 13.04-6.244 18.366-11.57 5.234-5.51 8.54-15.06 18.366-13.59 9.734 1.468 16.254 13.406 23.049 28.099 5.05 10.468 22.865 25.253 21.672 37.007-1.47 17.998-21.948 21.396-42.15 10.836Z" stroke="#E68C3F" stroke-width="6.25" fill="url(#fn)" transform="translate(10)"/><path d="M201.608 189.119c-3.122 5.877-16.162 15.335-24.886 12.856-8.815-2.388-12.856-15.795-11.111-25.988 1.653-11.386 11.111-12.03 23.05-6.336 12.855 6.336 16.712 11.662 12.947 19.468Z" fill="url(#fo)" transform="translate(10)"/><path d="M194.445 253.49c15.06-18.273 48.578-14.508 25.988-39.577-4.775-5.418-3.306-16.989-9.183-21.947-6.887-6.061-14.509-1.102-21.488-4.224-6.979-3.398-14.325-9.918-22.865-5.327-8.54 4.684-9.459 16.805-10.285 32.783-.735 11.479-11.203 30.671-5.602 41.231 8.081 16.346 29.11 14.142 43.435-2.938Z" stroke="#E68C3F" stroke-width="6.251" fill="url(#fp)" transform="translate(10)"/><path d="M187.925 229.064c23.325-34.435 5.97-34.16.092-36.823-5.877-2.755-12.03-8.173-18.916-4.408-6.888 3.857-7.255 13.775-7.439 26.814-.275 9.367-8.08 25.07-3.397 33.793 5.693 10.193 19.467-4.591 29.66-19.376Z" fill="url(#fq)" transform="translate(10)"/><path d="M47.06 234.023c-34.895-22.59-18.55-30.303-13.315-33.885 6.336-4.591 6.428-13.407 14.233-12.58 7.806.826 12.397 10.468 17.631 22.406 3.857 8.54 17.264 19.927 16.254 29.753-1.285 11.57-19.743 3.948-34.803-5.694Z" fill="url(#fr)" transform="translate(10)"/><path d="M209.588 188.843c-2.755 4.776-13.958 12.306-21.396 10.285-7.622-1.928-11.112-12.672-9.55-20.753 1.377-9.183 9.55-9.642 19.834-5.05 10.928 4.958 14.326 9.182 11.112 15.518Z" fill="#000"/><path d="M192.058 186.18c-1.745 3.306-9.091 8.54-14.234 7.163-5.142-1.377-7.713-8.815-6.887-14.417.735-6.336 6.244-6.704 13.223-3.581 7.53 3.49 9.918 6.428 7.898 10.835Z" fill="url(#fs)" transform="translate(10)"/><path d="M97.107 66.344c3.673-3.398 12.58-13.774 29.477-2.939 3.122 2.02 5.693 2.204 11.662 4.775 12.03 4.96 6.336 16.897-6.52 20.937-5.51 1.745-10.468 8.449-20.386 7.806-8.54-.46-10.744-6.06-15.978-9.091-9.275-5.234-10.652-12.305-5.602-16.07 5.051-3.765 6.98-5.143 7.347-5.418Z" stroke="#E68C3F" stroke-width="3.75" fill="url(#ft)" transform="translate(10)"/><path d="M148.43 75.986c-5.05.275-15.979 11.203-27.457 11.203-11.479 0-18.366-10.652-20.11-10.652" stroke="#E68C3F" stroke-width="2.5"/><path d="M102.8 65.426c1.837-1.653 7.622-6.153 15.244-1.562 1.653.919 3.306 1.929 5.693 3.306 4.867 2.847 2.48 6.98-3.398 9.55-2.663 1.102-7.07 3.49-10.376 3.306-3.673-.367-6.153-2.755-8.54-4.316-4.5-2.938-4.224-5.418-2.112-7.346 1.56-1.47 3.305-2.847 3.49-2.938Z" fill="url(#fu)" transform="translate(10)"/></g></symbol><symbol viewBox="-17.5 0 291 291" preserveAspectRatio="xMidYMid" id="nginx" xmlns="http://www.w3.org/2000/svg"><path d="M2.054 218.187c1.32 2.347 3.227 4.108 5.575 5.428l112.962 65.137c4.695 2.787 10.416 2.787 14.964 0l112.963-65.137c4.695-2.64 7.482-7.629 7.482-13.057V80.284c0-5.428-2.787-10.416-7.482-13.056L135.555 2.09c-4.694-2.788-10.416-2.788-14.964 0L7.63 67.228C2.787 69.868 0 74.856 0 80.284v130.42c0 2.642.587 5.136 2.054 7.483" fill="#009639"/><path d="M91.837 195.154a14.463 14.463 0 0 1-14.524 14.524 14.463 14.463 0 0 1-14.523-14.524V95.542c0-7.776 6.895-14.084 16.43-14.084 6.896 0 14.965 2.787 19.806 8.802l4.4 5.282 60.737 72.618V95.835a14.463 14.463 0 0 1 14.524-14.524 14.463 14.463 0 0 1 14.523 14.524v99.613c0 7.775-6.895 14.083-16.43 14.083-6.896 0-14.965-2.787-19.806-8.802l-65.137-77.754v72.18Z" fill="#FFF"/></symbol><symbol viewBox="0 0 32 32" fill="none" id="npm" xmlns="http://www.w3.org/2000/svg"><path d="M0 10v10h9v2h7v-2h16V10H0Z" fill="#CB3837"/><path d="M5.462 12H2v6h3.462v-4.389h1.761V18h1.762v-6H5.462Zm5.284 0v8h3.523v-2h3.462v-6h-6.985Zm5.224 4.389h-1.701V13.61h1.7v2.778ZM22.954 12h-3.462v6h3.462v-4.389h1.762V18h1.761v-4.389h1.762V18H30v-6h-7.046Z" fill="#fff"/></symbol><symbol viewBox="0 0 32 32" fill="none" id="php" xmlns="http://www.w3.org/2000/svg"><circle cx="16" cy="16" r="14" fill="#8892BF"/><path d="M14.44 10h1.68l-.476 2.524h1.51c.828.018 1.445.203 1.85.555.414.353.536 1.022.366 2.01l-.816 4.4H16.85l.779-4.203c.08-.44.057-.753-.073-.938-.13-.185-.41-.278-.84-.278l-1.352-.013-.998 5.432h-1.68L14.44 10Z" fill="#fff"/><path fill-rule="evenodd" clip-rule="evenodd" d="M6.74 12.524h3.264c.957.009 1.651.309 2.081.899.43.59.573 1.396.426 2.418a4.938 4.938 0 0 1-.377 1.375c-.187.45-.446.854-.779 1.216-.406.458-.84.748-1.303.872a5.55 5.55 0 0 1-1.436.185H7.155L6.692 22H5l1.74-9.476Zm.695 5.472.728-3.952h.246c.09 0 .182-.004.28-.013.65-.009 1.189.057 1.619.198.438.141.584.674.438 1.6-.178 1.1-.527 1.744-1.047 1.929-.52.176-1.168.26-1.948.25h-.17a.83.83 0 0 1-.146-.012ZM24.436 12.524h-3.262L19.433 22h1.692l.463-2.511h1.46a5.55 5.55 0 0 0 1.437-.185c.463-.123.897-.414 1.303-.872.333-.362.592-.767.779-1.216.195-.45.32-.908.377-1.375.146-1.022.005-1.828-.426-2.418-.43-.59-1.124-.89-2.082-.899Zm-1.84 1.52-.728 3.952a.83.83 0 0 0 .146.013h.17c.78.009 1.429-.075 1.948-.251.52-.185.869-.828 1.047-1.93.146-.925 0-1.458-.438-1.599-.43-.14-.97-.207-1.62-.198a3.15 3.15 0 0 1-.28.013h-.245Z" fill="#fff"/></symbol><symbol viewBox="0 -32 256 256" preserveAspectRatio="xMidYMid" id="sass" xmlns="http://www.w3.org/2000/svg"><path d="M220.281 110.514c-8.906.046-16.647 2.191-23.128 5.362-2.379-4.71-4.757-8.906-5.176-11.984-.467-3.59-1.026-5.782-.467-10.072.56-4.29 3.078-10.399 3.031-10.865-.046-.466-.56-2.658-5.689-2.704-5.129-.047-9.559.979-10.072 2.331-.513 1.352-1.492 4.43-2.145 7.6-.886 4.664-10.258 21.31-15.62 30.03-1.726-3.403-3.218-6.388-3.545-8.766-.466-3.59-1.026-5.782-.466-10.072.56-4.29 3.078-10.398 3.031-10.865-.047-.466-.56-2.658-5.689-2.704-5.13-.047-9.56.979-10.072 2.331-.513 1.353-1.073 4.523-2.145 7.601-1.073 3.078-13.523 30.87-16.787 38.05a214.726 214.726 0 0 1-4.15 8.627s-.047.14-.187.373a117.773 117.773 0 0 1-1.398 2.658v.046c-.7 1.26-1.446 2.425-1.819 2.425-.28 0-.793-3.357.093-7.927 1.865-9.652 6.295-24.667 6.249-25.18 0-.28.839-2.891-2.891-4.244-3.638-1.352-4.943.886-5.27.886-.326 0-.56.793-.56.793s4.058-16.88-7.74-16.88c-7.367 0-17.533 8.067-22.569 15.341a6269.96 6269.96 0 0 0-17.16 9.373c-2.75 1.539-5.595 3.078-8.253 4.523-.187-.186-.373-.42-.56-.606-14.269-15.248-40.661-26.02-39.542-46.49.42-7.461 2.984-27.046 50.687-50.827 39.262-19.352 70.505-13.99 75.914-2.099 7.74 16.974-16.74 48.496-57.309 53.065-15.481 1.726-23.595-4.243-25.646-6.481-2.145-2.332-2.472-2.472-3.265-2.005-1.305.7-.466 2.798 0 4.01 1.213 3.17 6.202 8.766 14.642 11.518 7.461 2.424 25.6 3.777 47.563-4.71 24.574-9.513 43.786-35.952 38.144-58.101-5.643-22.476-42.947-29.89-78.246-17.347C61.086 13.99 38.33 25.74 21.963 41.035 2.518 59.22-.56 75.028.699 81.65c4.524 23.501 36.932 38.796 49.895 50.127-.653.373-1.26.7-1.772.98-6.482 3.217-31.196 16.133-37.351 29.796-6.994 15.481 1.12 26.58 6.482 28.071 16.647 4.617 33.76-3.683 42.946-17.393 9.186-13.709 8.067-31.522 3.824-39.682-.047-.093-.093-.187-.187-.28 1.679-.979 3.404-2.005 5.083-2.984a247.933 247.933 0 0 1 9.373-5.27c-1.586 4.337-2.752 9.513-3.311 16.974-.7 8.767 2.89 20.144 7.6 24.62 2.099 1.96 4.57 2.006 6.156 2.006 5.502 0 7.974-4.57 10.725-9.979 3.357-6.621 6.388-14.315 6.388-14.315s-3.777 20.797 6.482 20.797c3.73 0 7.507-4.85 9.186-7.321v.046s.093-.14.28-.466c.373-.606.606-.98.606-.98v-.092c1.492-2.612 4.85-8.534 9.839-18.373 6.435-12.683 12.637-28.537 12.637-28.537s.56 3.87 2.471 10.305c1.12 3.777 3.45 7.927 5.316 11.937-1.492 2.099-2.425 3.264-2.425 3.264l.047.047c-1.213 1.585-2.518 3.31-3.964 4.99-5.083 6.061-11.144 13.01-11.984 15.014-.98 2.378-.746 4.104 1.12 5.503 1.352 1.026 3.776 1.165 6.248 1.026 4.57-.327 7.787-1.446 9.372-2.145 2.472-.886 5.363-2.239 8.067-4.244 4.99-3.684 8.02-8.953 7.741-15.9-.14-3.824-1.399-7.648-2.938-11.239.467-.652.886-1.305 1.353-1.958 7.88-11.518 13.989-24.155 13.989-24.155s.56 3.87 2.471 10.306c.933 3.264 2.845 6.808 4.523 10.258-7.414 6.016-11.984 13.01-13.616 17.58-2.937 8.487-.653 12.31 3.684 13.196 1.958.42 4.756-.513 6.808-1.399 2.611-.839 5.689-2.284 8.627-4.43 4.99-3.683 9.792-8.813 9.512-15.76-.14-3.171-.979-6.296-2.145-9.327 6.295-2.61 14.409-4.056 24.76-2.844 22.197 2.611 26.58 16.46 25.74 22.29-.839 5.828-5.502 8.999-7.04 9.978-1.54.98-2.052 1.306-1.912 2.005.186 1.026.932.98 2.238.793 1.819-.326 11.658-4.71 12.077-15.435.7-13.709-12.357-28.677-35.439-28.537ZM49.055 168.242c-7.368 8.02-17.626 11.051-22.056 8.487-4.756-2.752-2.891-14.596 6.155-23.082 5.502-5.176 12.59-9.98 17.3-12.917 1.072-.653 2.658-1.585 4.57-2.751.326-.187.513-.28.513-.28l1.119-.7c3.31 12.124.14 22.803-7.601 31.243Zm53.625-36.465c-2.565 6.249-7.927 22.243-11.191 21.357-2.798-.746-4.524-12.87-.56-24.854 2.005-6.016 6.248-13.197 8.72-15.994 4.01-4.477 8.44-5.97 9.512-4.15 1.353 2.378-4.896 19.724-6.481 23.641Zm44.252 21.17c-1.073.56-2.098.933-2.565.653-.326-.187.467-.933.467-.933s5.549-5.968 7.74-8.673c1.26-1.585 2.751-3.45 4.337-5.549v.606c0 7.135-6.902 11.938-9.98 13.896Zm34.133-7.787c-.793-.56-.653-2.425 2.005-8.254 1.026-2.285 3.45-6.108 7.601-9.792.466 1.492.793 2.938.746 4.29-.047 9-6.481 12.357-10.352 13.756Z" fill="#CD6799"/></symbol><symbol viewBox="0 0 256 256" preserveAspectRatio="xMidYMid" id="telegram" xmlns="http://www.w3.org/2000/svg"><path d="M128 0C57.307 0 0 57.307 0 128s57.307 128 128 128 128-57.307 128-128S198.693 0 128 0Z" fill="#40B3E0"/><path d="M190.283 73.63 167.42 188.899s-3.197 7.994-11.99 4.157l-52.758-40.448-19.184-9.272-32.294-10.872s-4.956-1.758-5.436-5.595c-.48-3.837 5.596-5.915 5.596-5.915l128.376-50.36s10.552-4.636 10.552 3.038" fill="#FFF"/><path d="M98.618 187.603s-1.54-.144-3.46-6.22c-1.917-6.075-11.67-38.049-11.67-38.049l77.538-49.24s4.477-2.718 4.317 0c0 0 .799.48-1.6 2.718-2.397 2.239-60.91 54.836-60.91 54.836" fill="#D2E5F1"/><path d="m122.901 168.115-20.867 19.026s-1.632 1.238-3.416.462l3.996-35.34" fill="#B5CFE4"/></symbol><symbol viewBox="-17 0 290 290" preserveAspectRatio="xMidYMid" id="webpack" xmlns="http://www.w3.org/2000/svg"><path fill="#FFF" d="m128 .048 128 72.405V217.31l-128 72.405L0 217.31V72.453z"/><path d="m233.153 212.287-100.902 57.14V224.99l62.889-34.632 38.013 21.929Zm6.907-6.231V86.654l-36.902 21.3v76.8l36.902 21.302Zm-217.6 6.23 100.903 57.094v-44.438l-62.889-34.584-38.014 21.929Zm-6.907-6.23V86.654l36.903 21.3v76.8l-36.903 21.302Zm4.3-127.13 103.51-58.543v42.99L57.045 99.84l-.532.29-36.66-21.205Zm215.86 0L132.251 20.382v42.99l66.27 36.515.531.29 36.661-21.253Z" fill="#8ED6FB"/><path d="m123.363 214.847-62.02-34.15v-67.574l62.02 35.792v65.932Zm8.888 0 62.02-34.101v-67.623l-62.02 35.792v65.932ZM65.497 105.298l62.31-34.246 62.26 34.246-62.26 35.937-62.31-35.937Z" fill="#1C78C0"/></symbol><symbol viewBox="0 0 32 32" fill="none" id="whatsapp" xmlns="http://www.w3.org/2000/svg"><path fill-rule="evenodd" clip-rule="evenodd" d="M16 31c7.732 0 14-6.268 14-14S23.732 3 16 3 2 9.268 2 17c0 2.51.661 4.867 1.818 6.905L2 31l7.315-1.696A13.938 13.938 0 0 0 16 31Zm0-2.154c6.543 0 11.846-5.303 11.846-11.846 0-6.542-5.303-11.846-11.846-11.846C9.458 5.154 4.154 10.458 4.154 17c0 2.526.79 4.867 2.138 6.79L5.23 27.77l4.049-1.013a11.791 11.791 0 0 0 6.72 2.09Z" fill="#BFC8D0"/><path d="M28 16c0 6.627-5.373 12-12 12-2.528 0-4.873-.782-6.807-2.116L5.09 26.909l1.075-4.03A11.945 11.945 0 0 1 4 16C4 9.373 9.373 4 16 4s12 5.373 12 12Z" fill="url(#ma)"/><path fill-rule="evenodd" clip-rule="evenodd" d="M16 30c7.732 0 14-6.268 14-14S23.732 2 16 2 2 8.268 2 16c0 2.51.661 4.867 1.818 6.905L2 30l7.315-1.696A13.938 13.938 0 0 0 16 30Zm0-2.154c6.543 0 11.846-5.303 11.846-11.846 0-6.542-5.303-11.846-11.846-11.846C9.458 4.154 4.154 9.458 4.154 16c0 2.526.79 4.867 2.138 6.79L5.23 26.77l4.049-1.013a11.791 11.791 0 0 0 6.72 2.09Z" fill="#fff"/><path d="M12.5 9.5c-.333-.669-.844-.61-1.36-.61-.921 0-2.359 1.105-2.359 3.16 0 1.684.742 3.528 3.243 6.286 2.414 2.662 5.585 4.039 8.218 3.992 2.633-.047 3.175-2.313 3.175-3.078 0-.339-.21-.508-.356-.554-.897-.43-2.552-1.233-2.928-1.384-.377-.15-.573.054-.695.165-.342.325-1.019 1.284-1.25 1.5-.232.215-.578.106-.721.024-.53-.212-1.964-.85-3.107-1.958-1.415-1.371-1.498-1.843-1.764-2.263-.213-.336-.057-.542.021-.632.305-.351.726-.894.914-1.164.189-.27.04-.679-.05-.934-.387-1.097-.715-2.015-.981-2.55Z" fill="#fff"/><defs><linearGradient id="ma" x1="26.5" y1="7" x2="4" y2="28" gradientUnits="userSpaceOnUse"><stop stop-color="#5BD066"/><stop offset="1" stop-color="#27B43E"/></linearGradient></defs></symbol><symbol viewBox="0 0 48 48" id="wordpress" xmlns="http://www.w3.org/2000/svg"><path d="M0 24c0 9.499 5.52 17.709 13.526 21.598L2.078 14.232A23.917 23.917 0 0 0 0 24Zm40.202-1.211c0-2.967-1.067-5.02-1.979-6.618-1.217-1.98-2.358-3.653-2.358-5.63 0-2.207 1.672-4.26 4.03-4.26.107 0 .208.013.311.02A23.909 23.909 0 0 0 24 0C15.614 0 8.239 4.302 3.947 10.817c.564.018 1.095.028 1.545.028 2.51 0 6.396-.304 6.396-.304 1.293-.077 1.446 1.825.153 1.977 0 0-1.3.153-2.746.23l8.739 25.995 5.253-15.752-3.738-10.244c-1.293-.076-2.519-.23-2.519-.23-1.293-.076-1.141-2.053.153-1.976 0 0 3.963.304 6.322.304 2.51 0 6.396-.304 6.396-.304 1.294-.077 1.446 1.825.153 1.977 0 0-1.302.153-2.747.23l8.673 25.797 2.396-7.998c1.035-3.321 1.826-5.705 1.826-7.758Zm4.858-10.304c.103.765.162 1.584.162 2.468 0 2.434-.456 5.172-1.826 8.597l-7.33 21.194C43.2 40.584 48 32.853 48 24c0-4.173-1.067-8.096-2.94-11.515ZM24.42 26.1 17.22 47.023c2.151.633 4.425.978 6.78.978 2.795 0 5.476-.483 7.97-1.36a2.28 2.28 0 0 1-.17-.33L24.42 26.098Z" fill="#00759D" fill-rule="evenodd"/></symbol></svg>