<?xml version="1.0" ?><!DOCTYPE svg  PUBLIC '-//W3C//DTD SVG 1.1//EN'  'http://www.w3.org/Graphics/SVG/1.1/DTD/svg11.dtd'><svg xmlns="http://www.w3.org/2000/svg" xmlns:xlink="http://www.w3.org/1999/xlink"><symbol viewBox="0 0 32 32" xml:space="preserve" id="advertising" xmlns="http://www.w3.org/2000/svg"><path d="M5.5 28A2.503 2.503 0 0 1 3 25.5v-14a.5.5 0 0 1 .5-.5h2a.5.5 0 0 1 0 1H4v13.5c0 .827.673 1.5 1.5 1.5a.5.5 0 0 1 0 1z" fill="currentColor"/><path d="M5.5 28a.5.5 0 0 1 0-1c.827 0 1.5-.673 1.5-1.5v-22a.5.5 0 0 1 1 0v22C8 26.879 6.878 28 5.5 28z" fill="currentColor"/><path d="M5.5 30A4.505 4.505 0 0 1 1 25.5v-13a.5.5 0 0 1 1 0v13C2 27.43 3.57 29 5.5 29a.5.5 0 0 1 0 1z" fill="currentColor"/><path d="M26.5 30h-21a.5.5 0 0 1 0-1C7.43 29 9 27.43 9 25.5v-23a.5.5 0 0 1 .5-.5h21a.5.5 0 0 1 .5.5v23c0 2.481-2.019 4.5-4.5 4.5zM8.326 29H26.5c1.93 0 3.5-1.57 3.5-3.5V3H10v22.5A4.495 4.495 0 0 1 8.326 29z" fill="currentColor"/><path d="M23.998 10a.5.5 0 0 1-.468-.324l-1.5-4a.5.5 0 0 1 .936-.352l.885 2.361.457-2.284a.5.5 0 1 1 .98.197l-.801 4a.498.498 0 0 1-.489.402z" fill="currentColor"/><path d="m20.998 10-.041-.002a.5.5 0 0 1-.45-.4l-.797-4a.5.5 0 1 1 .981-.195l.454 2.28.884-2.358a.5.5 0 0 1 .936.352l-1.5 4a.498.498 0 0 1-.467.323zM14.5 10a.5.5 0 0 1-.415-.221L12 6.689V9.5a.5.5 0 0 1-1 0v-4a.5.5 0 0 1 .5-.5h.301c.166 0 .321.083.415.221L14 7.865V5.5a.5.5 0 0 1 1 0v4a.502.502 0 0 1-.5.5zM18.5 10h-2a.5.5 0 0 1-.5-.5v-4a.5.5 0 0 1 .5-.5h2a.5.5 0 0 1 0 1H17v3h1.5a.5.5 0 0 1 0 1z" fill="currentColor"/><path d="M18 8h-1.5a.5.5 0 0 1 0-1H18a.5.5 0 0 1 0 1zM27.5 10c-.827 0-1.505-.469-1.813-1.255a.5.5 0 0 1 .931-.365c.111.283.354.62.882.62.361 0 .529-.34.529-.57 0-.198-.172-.313-.688-.555-.33-.154-.703-.33-.965-.629-.358-.408-.455-1.001-.239-1.478.221-.488.705-.768 1.328-.768.801 0 1.223.451 1.269.502a.5.5 0 0 1-.74.673c-.018-.017-.19-.175-.529-.175-.153 0-.349.031-.417.181-.055.121-.021.291.079.405.125.143.387.266.639.384.533.251 1.263.593 1.263 1.46 0 .755-.584 1.57-1.529 1.57zM27.5 26h-6a.5.5 0 0 1 0-1h6a.5.5 0 0 1 0 1zM18.5 26h-6a.5.5 0 0 1 0-1h6a.5.5 0 0 1 0 1zM27.5 24h-6a.5.5 0 0 1 0-1h6a.5.5 0 0 1 0 1zM18.5 24h-6a.5.5 0 0 1 0-1h6a.5.5 0 0 1 0 1zM27.5 22h-6a.5.5 0 0 1 0-1h6a.5.5 0 0 1 0 1zM18.5 22h-6a.5.5 0 0 1 0-1h6a.5.5 0 0 1 0 1zM27.5 20h-6a.5.5 0 0 1 0-1h6a.5.5 0 0 1 0 1zM18.5 20h-6a.5.5 0 0 1 0-1h6a.5.5 0 0 1 0 1zM27.5 18h-6a.5.5 0 0 1 0-1h6a.5.5 0 0 1 0 1zM18.5 18h-6a.5.5 0 0 1 0-1h6a.5.5 0 0 1 0 1zM27.5 16h-6a.5.5 0 0 1 0-1h6a.5.5 0 0 1 0 1zM18.5 16h-6a.5.5 0 0 1 0-1h6a.5.5 0 0 1 0 1zM27.5 14h-6a.5.5 0 0 1 0-1h6a.5.5 0 0 1 0 1zM18.5 14h-6a.5.5 0 0 1 0-1h6a.5.5 0 0 1 0 1z" fill="currentColor"/></symbol><symbol viewBox="0 0 60 60" id="code-coding" xmlns="http://www.w3.org/2000/svg"><defs><style>.bcls-2{fill:#3d3d63}</style></defs><g data-name="Layer 2" id="bLayer_2"><g id="bIcons"><g id="bDevelopment"><path style="fill:none" d="M0 0h60v60H0z"/><circle class="bcls-2" cx="9.33" cy="15.74" r="1"/><circle class="bcls-2" cx="16" cy="15.74" r="1"/><circle class="bcls-2" cx="12.67" cy="15.74" r="1"/><path class="bcls-2" d="m20 30.25 3-3a1 1 0 1 0-1.42-1.42l-3.72 3.73a1 1 0 0 0 0 1.41l3.72 3.73a1 1 0 0 0 1.42 0 1 1 0 0 0 0-1.41ZM34.32 34.68a1 1 0 0 0 1.41 0L39.46 31a1 1 0 0 0 0-1.41l-3.73-3.73a1 1 0 0 0-1.41 1.42l3 3-3 3a1 1 0 0 0 0 1.4ZM31 26.15a1 1 0 0 0-1.37.37L25.94 33a1 1 0 1 0 1.73 1l3.73-6.45a1 1 0 0 0-.4-1.4Z" fill="currentColor"/><path class="bcls-2" d="M55.86 40a.29.29 0 0 1-.27-.19 10.43 10.43 0 0 0-1.67-2.89.29.29 0 0 1 0-.33 2.3 2.3 0 0 0-.84-3.14l-.75-.45V14.74a3 3 0 0 0-3-3H8a3 3 0 0 0-3 3v25.34a2.34 2.34 0 0 0 2.33 2.33H21l-1 3.7h-1.33a4.33 4.33 0 0 0-4.21 3.33H12a1 1 0 0 0 0 2h25.47a2.12 2.12 0 0 0 .07.71 2.25 2.25 0 0 0 1.07 1.4l2.11 1.22a2.3 2.3 0 0 0 3.14-.85.31.31 0 0 1 .31-.14 9.74 9.74 0 0 0 3.32 0 .3.3 0 0 1 .31.15 2.3 2.3 0 0 0 2 1.14 2.27 2.27 0 0 0 1.15-.3l2.11-1.22a2.29 2.29 0 0 0 1.07-1.4 2.26 2.26 0 0 0-.23-1.74.3.3 0 0 1 0-.34 10.52 10.52 0 0 0 1.67-2.88.28.28 0 0 1 .27-.19 2.31 2.31 0 0 0 2.3-2.3v-2.44A2.3 2.3 0 0 0 55.86 40ZM7 14.74a1 1 0 0 1 1-1h41.33a1 1 0 0 1 1 1v3H7Zm.33 25.67a.33.33 0 0 1-.33-.33V19.74h43.33V32a2.29 2.29 0 0 0-2.53 1 .29.29 0 0 1-.3.13 10.27 10.27 0 0 0-3.32 0 .28.28 0 0 1-.3-.13 2.29 2.29 0 0 0-3.14-.84l-2.11 1.22a2.24 2.24 0 0 0-1.07 1.39 2.32 2.32 0 0 0 .22 1.75.27.27 0 0 1 0 .33 10.43 10.43 0 0 0-1.67 2.89.29.29 0 0 1-.27.19 2.29 2.29 0 0 0-1.36.45ZM34 46.11H22l1-3.7h10.5v2.29a2.32 2.32 0 0 0 .5 1.41Zm-15.32 2h17.8a11 11 0 0 0 .78 1.33H16.57a2.33 2.33 0 0 1 2.1-1.33Zm37.48-3.41a.3.3 0 0 1-.3.3 2.31 2.31 0 0 0-2.15 1.48 8.46 8.46 0 0 1-1.34 2.33 2.31 2.31 0 0 0-.21 2.6.26.26 0 0 1 0 .22.29.29 0 0 1-.14.19L49.94 53a.3.3 0 0 1-.41-.12 2.31 2.31 0 0 0-2.37-1.11 7.92 7.92 0 0 1-2.66 0 2.31 2.31 0 0 0-2.37 1.12.31.31 0 0 1-.41.11l-2.11-1.22a.29.29 0 0 1-.14-.19.26.26 0 0 1 0-.22 2.33 2.33 0 0 0-.21-2.6 8.35 8.35 0 0 1-1.35-2.33A2.28 2.28 0 0 0 35.8 45a.3.3 0 0 1-.3-.3v-2.44a.29.29 0 0 1 .3-.3 2.3 2.3 0 0 0 2.14-1.48 8.21 8.21 0 0 1 1.35-2.33 2.33 2.33 0 0 0 .21-2.6.28.28 0 0 1 0-.23.26.26 0 0 1 .14-.18l2.11-1.22a.28.28 0 0 1 .15 0 .3.3 0 0 1 .25.14 2.32 2.32 0 0 0 2.37 1.12 7.92 7.92 0 0 1 2.66 0A2.33 2.33 0 0 0 49.53 34a.29.29 0 0 1 .4-.1l2.11 1.22a.26.26 0 0 1 .14.18.28.28 0 0 1 0 .23 2.3 2.3 0 0 0 .21 2.59 8.51 8.51 0 0 1 1.34 2.34A2.32 2.32 0 0 0 55.86 42a.29.29 0 0 1 .3.3Z" fill="currentColor"/><path class="bcls-2" d="M45.83 38.94a4.54 4.54 0 1 0 4.54 4.54 4.54 4.54 0 0 0-4.54-4.54Zm0 7.08a2.54 2.54 0 1 1 2.54-2.54A2.54 2.54 0 0 1 45.83 46Z" fill="currentColor"/></g></g></g></symbol><symbol viewBox="0 0 32 32" xml:space="preserve" id="content-design" xmlns="http://www.w3.org/2000/svg"><path d="M30.36 31h-.72V15.36H8.36V21a.36.36 0 0 1-.36.36H2.36V31h-.72V21c0-.096.038-.188.105-.255l6-6A.363.363 0 0 1 8 14.64h22a.36.36 0 0 1 .36.36v16zM2.869 20.64H7.64v-4.771L2.869 20.64zM27 30.36h-2a.36.36 0 0 1-.36-.36v-2a.36.36 0 0 1 .36-.36h2a.36.36 0 0 1 .36.36v2a.36.36 0 0 1-.36.36zm-1.64-.72h1.279v-1.28H25.36v1.28zm-3.36.72h-2a.36.36 0 0 1-.36-.36v-2a.36.36 0 0 1 .36-.36h2a.36.36 0 0 1 .36.36v2a.36.36 0 0 1-.36.36zm-1.64-.72h1.279v-1.28H20.36v1.28zm-3.36.72h-2a.36.36 0 0 1-.36-.36v-2a.36.36 0 0 1 .36-.36h2a.36.36 0 0 1 .36.36v2a.36.36 0 0 1-.36.36zm-1.64-.72h1.28v-1.28h-1.28v1.28zm-3.36.72h-2a.36.36 0 0 1-.36-.36v-2a.36.36 0 0 1 .36-.36h2a.36.36 0 0 1 .36.36v2a.36.36 0 0 1-.36.36zm-1.64-.72h1.28v-1.28h-1.28v1.28zM7 30.36H5a.36.36 0 0 1-.36-.36v-2a.36.36 0 0 1 .36-.36h2a.36.36 0 0 1 .36.36v2a.36.36 0 0 1-.36.36zm-1.64-.72h1.28v-1.28H5.36v1.28zM27 26.36h-2a.36.36 0 0 1-.36-.36v-2a.36.36 0 0 1 .36-.36h2a.36.36 0 0 1 .36.36v2a.36.36 0 0 1-.36.36zm-1.64-.72h1.279v-1.28H25.36v1.28zm-8.36.72h-2a.36.36 0 0 1-.36-.36v-2a.36.36 0 0 1 .36-.36h2a.36.36 0 0 1 .36.36v2a.36.36 0 0 1-.36.36zm-1.64-.72h1.28v-1.28h-1.28v1.28zM7 26.36H5a.36.36 0 0 1-.36-.36v-2a.36.36 0 0 1 .36-.36h2a.36.36 0 0 1 .36.36v2a.36.36 0 0 1-.36.36zm-1.64-.72h1.28v-1.28H5.36v1.28zM17 21.36h-2a.36.36 0 0 1-.36-.36v-2a.36.36 0 0 1 .36-.36h2a.36.36 0 0 1 .36.36v2a.36.36 0 0 1-.36.36zm-1.64-.72h1.28v-1.28h-1.28v1.28zM22 13.36h-2a.36.36 0 0 1-.36-.36v-2a.36.36 0 0 1 .36-.36h2a.36.36 0 0 1 .36.36v2a.36.36 0 0 1-.36.36zm-1.64-.72h1.279v-1.28H20.36v1.28zm-8.36.72h-2a.36.36 0 0 1-.36-.36v-2a.36.36 0 0 1 .36-.36h2a.36.36 0 0 1 .36.36v2a.36.36 0 0 1-.36.36zm-1.64-.72h1.28v-1.28h-1.28v1.28zM27 8.36h-2a.36.36 0 0 1-.36-.36V6a.36.36 0 0 1 .36-.36h2a.36.36 0 0 1 .36.36v2a.36.36 0 0 1-.36.36zm-1.64-.72h1.279V6.36H25.36v1.28zM17 8.36h-2a.36.36 0 0 1-.36-.36V6a.36.36 0 0 1 .36-.36h2a.36.36 0 0 1 .36.36v2a.36.36 0 0 1-.36.36zm-1.64-.72h1.28V6.36h-1.28v1.28zM22 3.36h-2a.36.36 0 0 1-.36-.36V1A.36.36 0 0 1 20 .64h2a.36.36 0 0 1 .36.36v2a.36.36 0 0 1-.36.36zm-1.64-.72h1.279V1.36H20.36v1.28zM12 3.36h-2A.36.36 0 0 1 9.64 3V1A.36.36 0 0 1 10 .64h2a.36.36 0 0 1 .36.36v2a.36.36 0 0 1-.36.36zm-1.64-.72h1.28V1.36h-1.28v1.28z" fill="currentColor"/><path style="fill:none" d="M0 0h32v32H0z"/></symbol><symbol viewBox="-1.5 0 24 24" id="css3" xmlns="http://www.w3.org/2000/svg"><path d="M19.366 21.423 21.279 0H0l.025.278L1.91 21.426l.016.176L10.559 24h.136l8.653-2.4.016-.176zM10.658 4.679h6.183l-.186 2.16-6.1 2.712.102.488h5.724l-.659 7.551L10.636 19l-5.084-1.408-.32-3.616h2.093l.168 1.833.016.178 3.085.82h.133l3.051-.848.015-.177.288-3.386.023-.276H5.057l-.19-2.173 6.309-2.701-.1-.49h-6.48l-.185-2.08h6.24z" fill="currentColor"/></symbol><symbol viewBox="0 0 32 32" xml:space="preserve" id="design" xmlns="http://www.w3.org/2000/svg"><path d="M29 4H3a3 3 0 0 0-3 3v16a3 3 0 0 0 3 3h9v3h-1.5a.5.5 0 0 0 0 1h11a.5.5 0 0 0 0-1H20v-3h9a3 3 0 0 0 3-3V7a3 3 0 0 0-3-3zM19 29h-6v-3h6v3zm12-6a2 2 0 0 1-2 2H3a2 2 0 0 1-2-2V7a2 2 0 0 1 2-2h26a2 2 0 0 1 2 2v16zM25.805 9.03a1.495 1.495 0 0 0-1.713.97H18V9h-4v1H7.908a1.496 1.496 0 0 0-2.873.174A1.501 1.501 0 0 0 6.5 12c.652 0 1.202-.419 1.408-1H14v.224c-4.388.897-7.745 4.658-7.986 9.246a.503.503 0 0 0 .501.53.495.495 0 0 0 .497-.467c.209-4.065 3.134-7.41 6.988-8.289V13h4v-.757c3.854.88 6.779 4.225 6.988 8.289a.496.496 0 0 0 .497.468.503.503 0 0 0 .501-.53c-.241-4.588-3.598-8.349-7.986-9.246V11h6.092c.207.581.756 1 1.408 1 .935 0 1.67-.855 1.466-1.826a1.495 1.495 0 0 0-1.161-1.144zM6.5 11a.5.5 0 1 1 0-1 .5.5 0 0 1 0 1zM17 12h-2v-2h2v2zm8.5-1a.5.5 0 1 1 0-1 .5.5 0 0 1 0 1z" fill="currentColor" style="fill:#0b1719"/></symbol><symbol viewBox="0 0 16 16" id="docker" xmlns="http://www.w3.org/2000/svg"><path d="m12.342 4.536.15-.227.262.159.116.083c.28.216.869.768.996 1.684.223-.04.448-.06.673-.06.534 0 .893.124 1.097.227l.105.057.068.045.191.156-.066.2a2.044 2.044 0 0 1-.47.73c-.29.299-.8.652-1.609.698l-.178.005h-.148c-.37.977-.867 2.078-1.702 3.066a7.081 7.081 0 0 1-1.74 1.488 7.941 7.941 0 0 1-2.549.968c-.644.125-1.298.187-1.953.185-1.45 0-2.73-.288-3.517-.792-.703-.449-1.243-1.182-1.606-2.177a8.25 8.25 0 0 1-.461-2.83.516.516 0 0 1 .432-.516l.068-.005h10.54l.092-.007.149-.016c.256-.034.646-.11.92-.27-.328-.543-.421-1.178-.268-1.854a3.3 3.3 0 0 1 .3-.81l.108-.187zM2.89 5.784l.04.007a.127.127 0 0 1 .077.082l.006.04v1.315l-.006.041a.127.127 0 0 1-.078.082l-.039.006H1.478a.124.124 0 0 1-.117-.088l-.007-.04V5.912l.007-.04a.127.127 0 0 1 .078-.083l.039-.006H2.89zm1.947 0 .039.007a.127.127 0 0 1 .078.082l.006.04v1.315l-.007.041a.127.127 0 0 1-.078.082l-.039.006H3.424a.125.125 0 0 1-.117-.088L3.3 7.23V5.913a.13.13 0 0 1 .085-.123l.039-.007h1.413zm1.976 0 .039.007a.127.127 0 0 1 .077.082l.007.04v1.315l-.007.041a.127.127 0 0 1-.078.082l-.039.006H5.4a.124.124 0 0 1-.117-.088l-.006-.04V5.912l.006-.04a.127.127 0 0 1 .078-.083l.039-.006h1.413zm1.952 0 .039.007a.127.127 0 0 1 .078.082l.007.04v1.315a.13.13 0 0 1-.085.123l-.04.006H7.353a.124.124 0 0 1-.117-.088l-.006-.04V5.912l.006-.04a.127.127 0 0 1 .078-.083l.04-.006h1.412zm1.97 0 .039.007a.127.127 0 0 1 .078.082l.006.04v1.315a.13.13 0 0 1-.085.123l-.039.006H9.322a.124.124 0 0 1-.117-.088l-.006-.04V5.912l.006-.04a.127.127 0 0 1 .078-.083l.04-.006h1.411zm-5.9-1.892.04.007a.127.127 0 0 1 .077.081l.007.041v1.315a.13.13 0 0 1-.085.123l-.039.007H3.424a.125.125 0 0 1-.117-.09l-.007-.04V4.021a.13.13 0 0 1 .085-.122l.039-.007h1.412zm1.976 0 .04.007a.127.127 0 0 1 .077.081l.007.041v1.315a.13.13 0 0 1-.085.123l-.039.007H5.4a.125.125 0 0 1-.117-.09l-.006-.04V4.021l.006-.04a.127.127 0 0 1 .078-.082l.039-.007h1.412zm1.953 0c.054 0 .1.037.117.088l.007.041v1.315a.13.13 0 0 1-.085.123l-.04.007h-1.41a.125.125 0 0 1-.117-.09l-.006-.04V4.021l.006-.04a.127.127 0 0 1 .078-.082l.04-.007h1.412zm0-1.892c.054 0 .1.037.117.088l.007.04v1.316a.13.13 0 0 1-.085.123l-.04.006h-1.41a.124.124 0 0 1-.117-.088l-.006-.04V2.128l.006-.04a.127.127 0 0 1 .078-.082L7.353 2h1.412z" fill="currentColor"/></symbol><symbol viewBox="-6.5 0 24 24" id="gulp" xmlns="http://www.w3.org/2000/svg"><path d="M9.288 18.319a9.777 9.777 0 0 1-3.89.61l.02.001a10.331 10.331 0 0 1-3.992-.633l.072.023.703 1.173.282 3.753q0 .328.868.539a8.742 8.742 0 0 0 1.955.216L5.448 24h-.007l.149.001c.687 0 1.356-.077 1.998-.224l-.06.012q.868-.211.868-.539l.234-3.753zm-8.585-6c.171-.571.411-1.07.716-1.52l-.012.019a3.132 3.132 0 0 1 1.156-1.071l.017-.008a.995.995 0 0 1 .896.049l-.005-.003a.94.94 0 0 1 .326.279l.002.003c.07.076.12.172.14.278l.001.004a.383.383 0 0 1-.025.307l.001-.002a.212.212 0 0 1-.188.118q-.118 0-.305-.328-.282-.516-.8-.141a2.706 2.706 0 0 0-.793.945l-.007.015c-.215.375-.405.81-.547 1.267l-.013.047a1.447 1.447 0 0 0-.105.549c0 .147.021.288.061.422l-.003-.01a.275.275 0 0 0 .24.142c.297-.059.549-.22.725-.443l.002-.003c.239-.226.448-.48.624-.758l.01-.016.234-.703q.094-.234.282-.234t.188.258a2.111 2.111 0 0 1-.194.74l.006-.013a6.135 6.135 0 0 0-.271.798l-.011.047-.378 1.216a1.274 1.274 0 0 1-.121.263l.003-.006a.198.198 0 0 1-.159.118H2.387a.159.159 0 0 1-.132-.07v-.001a.467.467 0 0 1-.023-.285l-.001.003a9.23 9.23 0 0 1 .373-1.264l-.021.064-.328.328c-.249.28-.594.47-.982.52l-.008.001-.033.001a.665.665 0 0 1-.345-.096l.003.002.375 3.705q.047.234 1.219.516c.85.209 1.826.328 2.83.328h.082-.004.078c1.004 0 1.98-.12 2.915-.345l-.084.017q1.126-.282 1.219-.516l.516-4.409-.094.047c-.226.252-.49.463-.785.626l-.015.008a.984.984 0 0 1-.566.07l.006.001q-.285-.047-.285-.282c.098-.335.277-.62.515-.843l.001-.001.141-.234q.234-.234.234-.352T9 12.389a.71.71 0 0 0-.375.188c-.15.138-.282.292-.394.46l-.006.009a4.416 4.416 0 0 0-.389.699l-.011.028-.188.375-.46 1.312a.62.62 0 0 1-.231.21l-.003.002a.213.213 0 0 1-.235 0h.001a.204.204 0 0 1-.091-.164l.047-.141c.122-.354.249-.648.394-.932l-.019.041.328-.703q.047-.188.047-.141c-.183.2-.401.365-.644.487l-.013.006a.757.757 0 0 1-.474.07l.005.001a.303.303 0 0 1-.234-.232v-.002l-.047-.094c-.197.201-.47.326-.773.328q-.305-.047-.16-.703c-.174.41-.569.694-1.031.703h-.001a.401.401 0 0 1-.421-.232l-.001-.003a1.974 1.974 0 0 1 .23-1.09l-.005.011v-.047q.141-.328.328-.75.141-.282.375-.188h.047q.141.094.047.375l-.141.188c-.11.205-.22.452-.314.708l-.014.043q-.094.422.07.422a.79.79 0 0 0 .356-.096l-.004.002c.209-.152.376-.349.489-.577l.004-.009c.107-.182.195-.393.254-.616l.004-.018.094-.24q.094-.234.211-.234a.296.296 0 0 1 .211.093q.094.094 0 .328l-.328.75a1.736 1.736 0 0 0-.14.553v.007q0 .188.328.047c.126-.049.234-.112.33-.19l-.002.002q.047-.188.75-2.017l.469-1.173a.333.333 0 0 1 .318-.235h.011-.001c.055.01.103.035.141.071q.094.07.047.258l-.847 2.026q-.328.844-.4 1.076t.028.24q.328 0 1.079-.8l.047-.047.141-.328c.033-.162.098-.305.189-.428l-.002.003q.094-.094.141-.094.188 0 .188.16v.007a.954.954 0 0 1-.049.304l.002-.007.234-.234a1.006 1.006 0 0 1 .824-.352h-.003a.38.38 0 0 1 .353.378l-.001.023v-.001a2.256 2.256 0 0 1-.609 1.079l-.094.047a1.024 1.024 0 0 0-.139.274l-.002.007q0 .047.094.047c.129-.034.24-.1.328-.188l.8-.703.703-6.379a8.93 8.93 0 0 1-3.022.516H7.69h.004a36.826 36.826 0 0 1-4.61-.006l.106.005h-.075A9.084 9.084 0 0 1 .03 6.428l.063.02zm10.179-6.286h-.047q0-.188-.868-.375a15.556 15.556 0 0 0-2.234-.28l-.042-.002.469-1.92L10.834.594Q10.975.5 10.6.172a.527.527 0 0 0-.278-.159l-.004-.001q-.141-.023-.188.023L7.271 3.028l-.61 2.298-1.219-.048a27.17 27.17 0 0 0-3.987.25l.14-.016q-1.594.234-1.594.516 0 .469 2.814.657a37.31 37.31 0 0 0 5.375-.007l-.121.007q2.814-.186 2.814-.656zm-3.28.234q0 .047-.188.118a1.238 1.238 0 0 1-.418.071h-.029.001-.028c-.15 0-.293-.026-.427-.073l.009.003q-.188-.07-.188-.118t.141-.094l-.047.047q0 .094.516.094t.516-.094l.047-.047q.091.044.091.09z" fill="currentColor"/></symbol><symbol viewBox="0 0 512 512" id="html5" xmlns="http://www.w3.org/2000/svg"><path d="m64 32 34.94 403.21L255.77 480 413 435.15 448 32Zm308 132H188l4 51h176l-13.51 151.39L256 394.48l-98.68-28-6.78-77.48h48.26l3.42 39.29L256 343.07l53.42-14.92L315 264H148l-12.59-149.59H376.2Z" fill="currentColor"/></symbol><symbol viewBox="0 0 512 512" xml:space="preserve" id="js" xmlns="http://www.w3.org/2000/svg"><path fill-rule="evenodd" clip-rule="evenodd" d="M1.008.5C.438.583.48 1.27.521 1.958v508.974c169.364 1.135 340.808.162 510.979.486V.5H1.008zm258.885 451.667c-11.822 11.919-30.478 18.938-53.429 18.938-37.643 0-58.543-18.34-71.884-43.711a967.712 967.712 0 0 1 39.344-23.795c5.456 15.262 23.886 32.42 44.683 21.857 13.183-6.699 11.661-27.01 11.661-49.054V236.53c-.042-.688-.083-1.375.482-1.458h47.116v117.529c0 42.598 3.044 78.387-17.973 99.566zm210.803-42.25c-2.674 39.884-35.243 61.063-79.17 61.188-43.062.124-70.624-19.013-87.433-48.567 12.085-8.317 25.778-15.017 38.375-22.822 10.08 15.761 27.537 30.91 53.429 28.652 16.131-1.406 34.856-14.555 24.285-34.482-5.127-9.66-17.516-14.567-28.656-19.425-35.352-15.424-76.828-29.571-72.861-84.992 1.327-18.514 9.852-31.525 20.889-40.796 11.311-9.5 26.46-15.867 46.629-16.511 36.629-1.173 56.723 15.12 70.429 37.884-11.664 8.891-24.514 16.608-37.401 24.281-4.229-12.995-24.644-25.658-41.772-17.969-7.789 3.493-14.788 13.761-10.684 26.224 3.66 11.115 18.589 17.199 30.599 22.344 36.352 15.56 76.977 30.767 73.342 84.991z" fill="currentColor"/></symbol><symbol viewBox="0 0 32 32" id="linux" xmlns="http://www.w3.org/2000/svg"><path d="M14.923 8.08c-.025.072-.141.061-.207.082-.059.031-.107.085-.175.085-.062 0-.162-.025-.17-.085-.012-.082.11-.166.187-.166a.391.391 0 0 1 .326-.005l-.003-.001a.06.06 0 0 1 .038.055l-.001.008v.025h.004zm.688 0v-.027c-.008-.025.016-.052.036-.062a.396.396 0 0 1 .327.006l-.002-.001c.079 0 .2.084.187.169-.007.061-.106.082-.169.082-.069 0-.115-.054-.176-.085-.065-.023-.182-.01-.204-.081zm1.352 1.978a4.608 4.608 0 0 1-1.835.666l-.024.003a2.933 2.933 0 0 1-1.607-.588l.007.005c-.192-.167-.35-.335-.466-.419-.205-.167-.18-.416-.092-.416.136.02.161.167.249.25.12.082.269.25.45.416.397.328.899.541 1.45.583l.009.001a3.915 3.915 0 0 0 1.763-.592l-.016.01c.244-.169.556-.417.81-.584.195-.17.186-.334.349-.334.16.02.043.167-.184.415a9.973 9.973 0 0 1-.818.56l-.044.025zM8.017 21.397h.012c.069 0 .137.007.203.019l-.007-.001c.544.14.992.478 1.273.931l.005.009 1.137 2.079.004.004c.457.773.948 1.442 1.497 2.059l-.011-.013c.49.52.82 1.196.909 1.946l.002.016v.008a1.662 1.662 0 0 1-1.396 1.616l-.009.001a4.594 4.594 0 0 1-3.014-.592l.021.012a10.049 10.049 0 0 0-3.555-.752h-.015a1.214 1.214 0 0 1-.901-.496l-.002-.003a2.016 2.016 0 0 1 .159-1.548l-.005.011v-.005l.003-.004a3.031 3.031 0 0 0-.039-1.418l.005.021a1.956 1.956 0 0 1 .058-1.189l-.004.014c.2-.417.495-.5.862-.666a3.51 3.51 0 0 0 1.151-.593l-.008.006h.002v-.003c.32-.335.556-.751.835-1.047.195-.249.492-.41.827-.42h.002zm13.514-.061-.001.059c0 .743.449 1.381 1.091 1.658l.012.005a2.72 2.72 0 0 0 2.235-.952l.003-.004.264-.012a1.29 1.29 0 0 1 1.059.336l-.001-.001.004.004c.249.301.422.673.487 1.082l.002.013c.055.505.238.96.517 1.34l-.005-.008c.416.356.705.85.793 1.411l.002.013.004-.009v.022l-.004-.015c-.019.327-.231.495-.622.744a10.428 10.428 0 0 0-3.077 1.968l.007-.006a3.875 3.875 0 0 1-2.523 1.486l-.021.002a1.872 1.872 0 0 1-1.963-1.11l-.005-.012-.006-.004a3.126 3.126 0 0 1-.146-.956c0-.416.079-.813.224-1.178l-.008.022c.234-.668.435-1.466.568-2.288l.011-.083c.016-.812.104-1.593.258-2.35l-.014.083a1.81 1.81 0 0 1 .794-1.225l.007-.004.056-.027zM18.8 10.142a29.697 29.697 0 0 0 2.247 5.757l-.079-.167a12.82 12.82 0 0 1 1.363 3.695l.014.084h.031c.217 0 .427.029.627.084l-.017-.004a4.97 4.97 0 0 0 .173-1.316 5.07 5.07 0 0 0-1.533-3.639l-.001-.001c-.275-.25-.29-.419-.154-.419a7.246 7.246 0 0 1 2.045 3.394l.012.051a4.395 4.395 0 0 1 .021 2.117l.006-.03c.074.038.16.067.251.083l.006.001c1.29.667 1.766 1.172 1.537 1.921v-.054c-.075-.004-.15 0-.225 0h-.02c.189-.584-.227-1.031-1.331-1.53-1.143-.5-2.057-.42-2.212.581a.999.999 0 0 0-.022.165v.003c-.073.03-.16.058-.25.078l-.011.002c-.508.336-.87.859-.989 1.469l-.002.014c-.148.695-.241 1.5-.256 2.323v.016a9.39 9.39 0 0 1-.418 1.753l.02-.066a5.725 5.725 0 0 1-3.634 1.29 5.732 5.732 0 0 1-3.073-.887l.024.014a3.333 3.333 0 0 0-.503-.667l.001.001a1.83 1.83 0 0 0-.342-.415l-.002-.001c.207 0 .407-.031.596-.088l-.015.004a.779.779 0 0 0 .391-.412l.002-.005a1.648 1.648 0 0 0-.432-1.454l.001.001a7.992 7.992 0 0 0-2.196-1.88l-.038-.02a3.196 3.196 0 0 1-1.43-1.722l-.007-.022a3.954 3.954 0 0 1-.013-2.083l-.006.027a12.157 12.157 0 0 1 1.62-3.496l-.028.043c.134-.081.046.169-.51 1.217a4.575 4.575 0 0 0-.757 2.533c0 .84.224 1.627.616 2.306l-.012-.022c.052-1.309.345-2.537.834-3.659l-.025.065a21.101 21.101 0 0 0 2.275-6.452l.02-.131c.06.045.271.169.361.252.272.166.475.416.737.581.267.26.633.42 1.035.42l.063-.001h-.003c.049.004.094.008.137.008a2.657 2.657 0 0 0 1.259-.342l-.013.007c.362-.167.65-.417.925-.5h.006a2.423 2.423 0 0 0 1.3-.869l.004-.006zm-3.499-2.677h.009c.569 0 1.094.187 1.517.503l-.007-.005c.378.234.814.433 1.275.574l.04.01h.004c.246.11.449.281.594.494l.003.005v-.164a.71.71 0 0 1 .019.592l.002-.005a2.237 2.237 0 0 1-1.313 1.048l-.016.004v.002c-.335.169-.626.416-.968.581-.35.21-.771.334-1.222.334h-.045.002a1.407 1.407 0 0 1-.57-.087l.01.003a4.53 4.53 0 0 1-.417-.257l.014.01a7.16 7.16 0 0 0-.739-.565l-.026-.016v-.006h-.006a1.97 1.97 0 0 1-.852-.876l-.005-.012a.626.626 0 0 1 .239-.748l.002-.001c.28-.169.475-.339.604-.42.13-.092.179-.127.22-.164h.002v-.004a2.314 2.314 0 0 1 1.032-.746l.016-.005a2.21 2.21 0 0 1 .581-.081h.001zm-1.712-2.132h.045a.875.875 0 0 1 .501.17l-.002-.002c.179.159.325.352.425.57l.004.011c.113.245.183.53.191.83v.008a1.804 1.804 0 0 1-.003.34l.001-.008v.1c-.037.009-.07.022-.104.03a3.4 3.4 0 0 0-.505.258l.014-.008a1.293 1.293 0 0 0 .003-.34l.001.006v-.019a1.668 1.668 0 0 0-.107-.428l.004.011a.77.77 0 0 0-.207-.333.31.31 0 0 0-.209-.081l-.021.001h.001-.026a.293.293 0 0 0-.232.163l-.001.002a.694.694 0 0 0-.15.334v.004a1.128 1.128 0 0 0-.028.418v-.005.019c.016.154.052.296.104.428l-.004-.011a.792.792 0 0 0 .207.335.16.16 0 0 0 .042.03h.001a1.488 1.488 0 0 0-.221.171l.001-.001c-.045.04-.1.07-.161.084l-.003.001a3.24 3.24 0 0 1-.335-.486l-.008-.016a2.18 2.18 0 0 1-.194-.83v-.004a2.216 2.216 0 0 1 .104-.851l-.004.016c.074-.258.195-.481.356-.671l-.002.003a.703.703 0 0 1 .522-.25h.001zm3.702-.074h.02c.275 0 .527.093.729.249l-.003-.002c.229.177.413.4.542.655l.005.011c.121.266.196.575.207.901v.004c0-.025.007-.05.007-.075v.131l-.005-.026-.005-.03c-.003.32-.071.622-.193.897l.006-.014a1.201 1.201 0 0 1-.266.419.774.774 0 0 0-.104-.05l-.006-.002a1.422 1.422 0 0 1-.36-.169l.005.003a1.61 1.61 0 0 0-.264-.081l-.011-.002c.081-.076.156-.157.225-.243l.004-.005c.063-.148.102-.319.11-.499V7.278c0-.17-.028-.333-.08-.485l.003.011a1.849 1.849 0 0 0-.232-.421l.004.005a.57.57 0 0 0-.331-.165h-.027a.399.399 0 0 0-.322.164l-.001.001a.993.993 0 0 0-.254.41l-.002.007a1.435 1.435 0 0 0-.112.496v.027c.002.12.011.236.027.349l-.002-.015c-.241-.084-.547-.169-.759-.252a1.814 1.814 0 0 1-.022-.247v-.028l-.001-.066a2.2 2.2 0 0 1 .194-.908l-.006.014c.106-.279.293-.508.532-.663l.005-.003a1.22 1.22 0 0 1 .742-.25zm-.661-4.255c-.194 0-.394.01-.6.026-5.281.416-3.88 6.007-3.961 7.87a6.716 6.716 0 0 1-1.325 3.792l.013-.018a18.584 18.584 0 0 0-3.351 5.523l-.043.127a6.585 6.585 0 0 0-.408 2.302c0 .285.018.566.052.841l-.003-.033a.531.531 0 0 0-.136.166l-.001.003c-.325.335-.562.75-.829 1.048a3 3 0 0 1-.975.494l-.021.005a1.854 1.854 0 0 0-1.075.841L3.962 24a1.652 1.652 0 0 0-.165.725v.029-.001c.002.238.026.469.073.693l-.004-.023a3.058 3.058 0 0 1 .047 1.23l.002-.018a2.3 2.3 0 0 0-.264 1.08c0 .278.048.544.137.791l-.005-.016c.273.388.686.662 1.164.749l.011.002c1.274.107 2.451.373 3.561.78l-.094-.03c.698.415 1.539.66 2.436.66.294 0 .582-.026.862-.077l-.029.004a2.226 2.226 0 0 0 1.504-1.169l.006-.013c.734-.004 1.537-.336 2.824-.417.873-.072 1.967.334 3.22.25a2.1 2.1 0 0 0 .148.429l-.006-.013.004.004a2.351 2.351 0 0 0 2.364 1.338l-.01.001a4.382 4.382 0 0 0 2.813-1.623l.007-.009a10.149 10.149 0 0 1 2.905-1.853l.067-.025c.432-.191.742-.585.81-1.059l.001-.007a2.51 2.51 0 0 0-.888-1.716l-.004-.003v-.121l-.004-.004a2.8 2.8 0 0 1-.421-1.142l-.002-.015a2.168 2.168 0 0 0-.615-1.307h-.004c-.074-.067-.154-.084-.235-.169a.442.442 0 0 0-.237-.08h-.001a6.601 6.601 0 0 0 .308-2.013c0-.94-.193-1.835-.541-2.647l.017.044a15.73 15.73 0 0 0-2.732-4.369l.014.017A6.519 6.519 0 0 1 21.058 8.7l-.001-.021c.033-2.689.295-7.664-4.429-7.671z" fill="currentColor"/></symbol><symbol viewBox="0 0 32 32" id="nginx" xmlns="http://www.w3.org/2000/svg"><path d="M16 0 2.14 8v16L16 32l13.86-8V8zm8 22.12c0 .943-.86 1.719-2.036 1.719-.844 0-1.803-.339-2.401-1.079l-8-9.52v8.88c0 .959-.76 1.719-1.703 1.719h-.1a1.732 1.732 0 0 1-1.719-1.719V9.88c0-.943.839-1.719 2-1.719.86 0 1.839.339 2.437 1.079l7.959 9.52V9.88c0-.963.803-1.719 1.724-1.719h.099a1.73 1.73 0 0 1 1.719 1.719v12.24z" fill="currentColor"/></symbol><symbol viewBox="0 0 48 48" id="npm" xmlns="http://www.w3.org/2000/svg"><g data-name="Layer 2"><path d="M0 0h48v48H0z" data-name="invisible box"/><g data-name="Q3 icons"><path d="M21.6 19.9H24v4.84h-2.4z"/><path d="M2 15v14.7h12.2v2.5H24v-2.5h22V15Zm12.2 12.2h-2.4v-7.3H9.3v7.3H4.5v-9.7h9.7Zm12.3 0h-4.9v2.5h-4.9V17.5h9.8Zm17.1 0h-2.4v-7.3h-2.5v7.3h-2.5v-7.3h-2.4v7.3h-4.9v-9.7h14.7Z" fill="currentColor"/></g></g></symbol><symbol viewBox="0 0 512 512" xml:space="preserve" id="php" xmlns="http://www.w3.org/2000/svg"><path d="M401.054 224c3.714 4.115 4.595 11.181 2.653 21.19-2.029 10.425-5.935 17.862-11.723 22.32-5.793 4.458-14.602 6.687-26.432 6.687h-17.849l10.957-56.37h20.103c11.15 0 18.577 2.059 22.291 6.173zm-251.3-6.173h-20.103l-10.958 56.37h17.848c11.827 0 20.639-2.229 26.432-6.687 5.789-4.458 9.694-11.896 11.723-22.32 1.942-10.01 1.06-17.075-2.653-21.19-3.713-4.114-11.14-6.173-22.289-6.173zM511.5 256c0 74.229-114.393 134.403-255.5 134.403S.5 330.229.5 256c0-74.228 114.393-134.403 255.5-134.403S511.5 181.772 511.5 256zm-312.958 9.286c3.04-5.448 5.203-11.461 6.483-18.037 3.102-15.967.761-28.403-7.024-37.313-7.781-8.91-20.165-13.363-37.136-13.363h-56.423L78.265 331.261h29.342l6.958-35.805h25.134c11.087 0 20.21-1.164 27.372-3.497 7.161-2.329 13.669-6.233 19.528-11.719 4.915-4.52 8.894-9.502 11.943-14.954zm103.272 30.17 12.181-62.682c2.479-12.747.619-21.971-5.572-27.664-6.196-5.688-17.449-8.537-33.768-8.537h-25.933l6.961-35.81h-29.11l-26.182 134.692h29.11l14.996-77.165h23.267c7.448 0 12.317 1.232 14.604 3.698 2.287 2.467 2.773 7.091 1.455 13.869l-11.581 59.598h29.572zm125.197-85.519c-7.78-8.91-20.164-13.363-37.135-13.363h-56.424l-26.178 134.688h29.343l6.957-35.805h25.135c11.086 0 20.21-1.164 27.371-3.497 7.161-2.329 13.669-6.233 19.528-11.719 4.92-4.521 8.896-9.502 11.943-14.954 3.044-5.448 5.202-11.461 6.483-18.037 3.103-15.968.762-28.404-7.023-37.313z" fill="currentColor"/></symbol><symbol viewBox="0 0 512 512" xml:space="preserve" id="sale-report" xmlns="http://www.w3.org/2000/svg"><path d="M442.462 85.713 364.359 7.61C359.452 2.703 352.925 0 345.985 0H87.914c-14.33 0-25.987 11.658-25.987 25.987v460.026c0 14.329 11.658 25.987 25.987 25.987h336.173c14.329 0 25.987-11.658 25.987-25.987V104.089c-.001-6.942-2.703-13.468-7.612-18.376zm-8.977 400.301c.001 5.182-4.215 9.398-9.398 9.398H87.914c-5.183 0-9.4-4.217-9.4-9.4V25.987c0-5.183 4.217-9.4 9.4-9.4h248.259v71.326c0 14.329 11.658 25.987 25.987 25.987h44.233a8.294 8.294 0 0 0 0-16.588H362.16c-5.183 0-9.4-4.217-9.4-9.4V19.469l77.972 77.973a9.339 9.339 0 0 1 2.752 6.647v381.925z" fill="currentColor"/><path d="M256 221.166c-63.11 0-114.454 51.344-114.454 114.454S192.89 450.073 256 450.073 370.454 398.73 370.454 335.62 319.11 221.166 256 221.166zm-97.866 114.453c0-26.063 10.243-49.779 26.914-67.336l56.397 63.446-80.582 26.861a97.8 97.8 0 0 1-2.729-22.971zm7.985 38.704 71.233-23.744-38.615 64.357c-14.218-10.296-25.572-24.313-32.618-40.613zM256 433.486c-15.44 0-30.052-3.599-43.051-9.993l46.93-78.218L347.9 369.28c-13.752 37.432-49.758 64.206-91.9 64.206zm4.56-105.219-63.122-71.012c16.341-12.243 36.618-19.501 58.562-19.501 53.964 0 97.866 43.903 97.866 97.866 0 6.028-.552 11.929-1.6 17.658l-91.706-25.011zM175.827 121.51V88.054c11.685 2 18.799 7.953 18.799 12.3a8.294 8.294 0 0 0 16.588 0c0-14.661-14.993-26.507-35.387-29.062V70.22a8.294 8.294 0 0 0-16.588 0v1.072c-20.394 2.556-35.387 14.402-35.387 29.062 0 20.768 19.479 28.748 35.387 33.583v33.456c-11.685-2-18.799-7.953-18.799-12.3a8.294 8.294 0 0 0-16.588 0c0 14.661 14.993 26.507 35.387 29.062v1.072a8.294 8.294 0 0 0 16.588 0v-1.072c20.394-2.556 35.387-14.402 35.387-29.062 0-20.768-19.479-28.748-35.387-33.583zm-16.587-5.067c-13.991-4.876-18.799-9.272-18.799-16.089 0-2.623 2.313-5.519 6.346-7.945 3.408-2.05 7.731-3.533 12.453-4.343v28.377zm29.04 46.595c-3.408 2.05-7.731 3.533-12.453 4.343v-28.377c13.991 4.876 18.799 9.272 18.799 16.089 0 2.623-2.313 5.519-6.346 7.945zM309.08 79.62h-70.773a8.294 8.294 0 0 0 0 16.588h70.773a8.294 8.294 0 0 0 0-16.588zM264.847 115.006h-26.54a8.294 8.294 0 0 0 0 16.588h26.54a8.294 8.294 0 0 0 0-16.588zM317.927 115.006h-17.693a8.294 8.294 0 0 0 0 16.588h17.693a8.294 8.294 0 0 0 0-16.588zM353.313 150.393H238.307a8.294 8.294 0 0 0 0 16.588h115.006a8.294 8.294 0 0 0 0-16.588z" fill="currentColor"/></symbol><symbol viewBox="0 0 512 512" id="sass" xmlns="http://www.w3.org/2000/svg"><path d="M511.78 328.07c-1.47-11.92-7.51-22.26-18-30.77a3.58 3.58 0 0 0-.43-.44l-.53-.38-.17-.12-5.57-4-.19-.14-.71-.5a3.5 3.5 0 0 0-.83-.35c-17.62-10.49-46.79-17.84-91.42-2.09-10.65-17.92-11.86-32.28-4.73-54.28 1.27-3.83.09-6.36-3.71-8-7.64-3.25-18.1-1.59-25.52.37-3.46.9-5.54 2.86-6.2 5.83-4.7 22-18.36 42.1-31.57 61.5l-.78 1.14c-8.14-17.26-6.45-30.63-.78-47.38 1.13-3.34.24-5.56-2.89-7.22-8.74-4.51-21.85-1.41-27.07.13-6.62 1.93-13.72 19.82-21.65 41.24-2 5.39-3.72 10-4.75 12.15-2.45 5-4.79 10.7-7.27 16.75-5.6 13.69-11.91 29.1-20.93 38.78-3.28-7.25 1.88-18.68 6.89-29.77 5.93-13.11 11.53-25.5 5.08-33.41a11.82 11.82 0 0 0-8.33-4.32 13.26 13.26 0 0 0-6.15 1c.67-5.65.7-10.11-.95-15.5-2.36-7.69-8.49-12-16.93-11.77-19.22.56-35.48 14.88-45.75 26.8-6.84 8-22 14.1-35.31 19.45-5.26 2.23-10.26 4.23-14.43 6.23-6.65-5.62-15.1-11.29-24-17.28-25-16.78-53.33-35.81-54.31-61.61-1.4-38.11 42-65.14 79.88-84.43 28.71-14.6 53.67-24.28 76.31-29.57 31.8-7.43 58.66-5.93 79.82 4.44 11.58 5.67 17 18 13.56 30.68-9 32.95-46.29 55.53-78.18 65.69-19.21 6.12-35.56 8.68-50 7.84-18.1-1.05-32.88-10.13-39.2-14a21.18 21.18 0 0 0-3.2-1.8l-.29-.07a3.21 3.21 0 0 0-3.19 1c-1.3 1.55-.84 4-.37 5.24 6.15 16.07 18.85 26.22 37.74 30.17a92.09 92.09 0 0 0 18.78 1.79c44.21 0 100.62-25.49 121.34-46.48 14.13-14.3 24.42-29 28.68-54.35 4.45-26.55-13.55-45-31.89-53.5-44.57-20.57-95.19-12.44-129.81-2-40.5 12.21-82.4 34.41-114.94 60.93-40.12 32.67-54.62 63-43.12 90.25 11.81 27.93 40.61 45.4 68.46 62.3 9 5.45 17.56 10.64 25.27 16-2.32 1.13-4.69 2.28-7.1 3.43-23.38 11.33-49.9 24.08-64.61 45.15-10.68 15.35-12.68 30.63-5.94 45.42 3.6 7.87 10 13.21 18.89 15.87A50 50 0 0 0 53 432c17.31 0 36.36-7 46.73-13.47 18.32-11.5 30.19-26.94 35.29-45.89 4.54-16.86 3.45-33.61-3.15-48.56l22.45-11.32c-10.83 36-2.53 57.5 6.59 69.36 3.36 4.37 9.42 7 16.19 7.12s13-2.43 16.52-6.77c6.66-8.25 11.58-17.9 16.11-27.55-.24 6.3.06 12.68 2.21 18.09 1.93 4.87 5.11 8.1 9.21 9.34 4.36 1.33 9.47.21 14.39-3.15 22.17-15.17 37.33-51.58 49.51-80.85 1.73-4.16 3.39-8.16 5-11.9a152.5 152.5 0 0 0 12.5 31.07c1.18 2.14 1.08 3.08-.52 4.84-2.41 2.64-5.77 5.83-9.33 9.21-10.78 10.23-24.2 23-26 34.23-.7 4.5 2.4 8.6 7.21 9.53 14.47 2.88 31.9-1.33 46.64-11.25 13.4-9 18.44-21.55 15-37.19-3.33-15.06 4.27-33.76 22.59-55.62 3 12.53 7 22.66 12.52 31.53l-.15.12c-13.34 11.65-31.62 27.6-28.78 46.95a13.35 13.35 0 0 0 5.58 9.22 14.22 14.22 0 0 0 11.2 2.06c17.47-3.67 30.62-11.06 40.18-22.57s6.07-24.27 2.85-34.17c25-6.78 47.26-6.61 68.1.5 11.7 4 20.09 10.57 24.93 19.64 6.09 11.41 2.8 21.94-9.29 29.65-3.71 2.37-5.5 3.82-5.61 5.65a2.65 2.65 0 0 0 1 2.23c1.4 1.15 5.72 3.15 15.49-3 9-5.65 14.28-13.34 15.63-23a39 39 0 0 0-.01-8.01Zm-399.73 25.06-.1 1.28c-1.56 14.64-9 27.4-22.15 38-8.26 6.66-17.23 10.75-25.25 11.53-5.6.54-9.67-.22-12.09-2.27-1.81-1.53-2.78-3.82-3-7-1.64-25.48 38.32-50.8 60.81-59.13a51.39 51.39 0 0 1 1.78 17.59Zm102.35-71.86c-3.7 21.09-14.49 60.9-31.45 76.35-.81.74-1.49 1-1.8.93s-.55-.44-.8-1c-5.66-13.12-3.57-35.28 5-52.69 6.59-13.42 16-22.31 26.52-25a5.29 5.29 0 0 1 1.34-.19 1.58 1.58 0 0 1 1 .27 1.64 1.64 0 0 1 .19 1.33Zm83.49 76.88c-3.19 3.33-7.56 2.88-6.53 1.66l16.24-17.24c-1.31 5.93-5.18 10.84-9.71 15.58Zm67.37-14.91a14.07 14.07 0 0 1-4.93 1.39c-.46-9.07 8.33-19.28 17-26.09 2.33 9.46-2.44 19.46-12.07 24.7Z" fill="currentColor"/></symbol><symbol viewBox="0 0 1024 1024" class="picon" id="social-network" xmlns="http://www.w3.org/2000/svg"><path d="M296.55 232.086c-4.42 0-8.076-3.578-8.076-7.998s3.498-7.998 7.904-7.998h.172c4.406 0 7.998 3.578 7.998 7.998s-3.592 7.998-7.998 7.998zm31.99 0c-4.42 0-8.074-3.578-8.074-7.998s3.498-7.998 7.904-7.998h.17c4.406 0 7.998 3.578 7.998 7.998s-3.592 7.998-7.998 7.998zm607.816 0c-4.422 0-8.078-3.578-8.078-7.998s3.5-7.998 7.906-7.998h.172c4.402 0 7.996 3.578 7.996 7.998s-3.594 7.998-7.996 7.998zm31.988 0c-4.418 0-8.074-3.578-8.074-7.998s3.5-7.998 7.902-7.998h.172c4.406 0 8 3.578 8 7.998s-3.594 7.998-8 7.998zM248.082 504.002H56.14a7.994 7.994 0 0 1-7.998-7.998v-191.94a7.994 7.994 0 0 1 7.998-7.998h191.942a7.994 7.994 0 0 1 7.998 7.998v191.94a7.994 7.994 0 0 1-7.998 7.998zM64.138 488.008h175.946V312.06H64.138v175.948zM40.628 184.1c-4.42 0-8.076-3.576-8.076-7.996 0-4.422 3.498-7.998 7.904-7.998h.172a8.002 8.002 0 0 1 7.998 7.998 8 8 0 0 1-7.998 7.996zm31.992 0c-4.42 0-8.076-3.576-8.076-7.996 0-4.422 3.498-7.998 7.904-7.998h.172a8.002 8.002 0 0 1 7.998 7.998 8.004 8.004 0 0 1-7.998 7.996zm31.99 0c-4.42 0-8.076-3.576-8.076-7.996 0-4.422 3.498-7.998 7.904-7.998h.172a8.002 8.002 0 0 1 7.998 7.998 8.004 8.004 0 0 1-7.998 7.996z" fill="currentColor"/><path d="M1015.848 200.096H8.156a7.994 7.994 0 0 1-7.998-7.998v-15.994c0-13.23 10.762-23.994 23.992-23.994h975.702c13.23 0 23.992 10.764 23.992 23.994v15.994a7.994 7.994 0 0 1-7.996 7.998zM16.152 184.1h991.696v-7.996c0-4.344-3.656-7.998-7.996-7.998H24.15a8.014 8.014 0 0 0-7.998 7.998v7.996z" fill="currentColor"/><path d="M1015.848 871.89H8.156a7.994 7.994 0 0 1-7.998-7.998V192.098a7.994 7.994 0 0 1 7.998-7.998h1007.692a7.994 7.994 0 0 1 7.996 7.998v671.794a7.994 7.994 0 0 1-7.996 7.998zM16.152 855.894h991.696V200.096H16.152v655.798z" fill="currentColor"/><path d="M152.094 456.018c-23.914 0-55.966-33.646-55.966-68.058 0-34.144 24.054-59.902 55.966-59.902 31.928 0 55.998 25.758 55.998 59.902 0 34.412-32.068 68.058-55.998 68.058zm0-111.968c-23.164 0-39.972 18.462-39.972 43.908 0 27.43 27.148 52.062 39.972 52.062 13.168 0 40.004-24.102 40.004-52.062 0-25.444-16.822-43.908-40.004-43.908z" fill="currentColor"/><path d="M248.096 472.012a6.96 6.96 0 0 1-1.376-.124c-70.62-12.23-70.62-17.12-70.62-23.868a7.994 7.994 0 0 1 14.136-5.122c6.608 2.998 35.13 9.058 59.202 13.246a7.972 7.972 0 0 1 6.514 9.23 7.99 7.99 0 0 1-7.856 6.638z" fill="currentColor"/><path d="M184.1 456.018a7.994 7.994 0 0 1-7.998-7.998v-19.65c0-4.42 3.578-7.998 7.998-7.998s7.998 3.578 7.998 7.998v19.65a7.994 7.994 0 0 1-7.998 7.998zM56.124 472.012a7.992 7.992 0 0 1-7.856-6.638 7.972 7.972 0 0 1 6.512-9.23c24.072-4.188 52.594-10.264 59.202-13.246a7.998 7.998 0 0 1 14.136 5.122c0 6.748 0 11.636-70.62 23.868-.452.092-.92.124-1.374.124z" fill="currentColor"/><path d="M120.12 456.018a7.994 7.994 0 0 1-7.998-7.998v-19.65a7.994 7.994 0 0 1 7.998-7.998 7.994 7.994 0 0 1 7.998 7.998v19.65a7.994 7.994 0 0 1-7.998 7.998zm127.962 239.926H56.14a7.994 7.994 0 0 1-7.998-7.998V496.004a7.992 7.992 0 0 1 7.998-7.996h191.942a7.992 7.992 0 0 1 7.998 7.996v191.942a7.994 7.994 0 0 1-7.998 7.998zM64.138 679.95h175.946V504.002H64.138V679.95z" fill="currentColor"/><path d="M104.61 551.988c-4.42 0-8.076-3.578-8.076-7.998s3.498-7.998 7.904-7.998h.172c4.406 0 7.998 3.578 7.998 7.998s-3.594 7.998-7.998 7.998zm95.486 0h-63.98c-4.42 0-7.998-3.578-7.998-7.998s3.576-7.998 7.998-7.998h63.98c4.42 0 7.998 3.578 7.998 7.998s-3.578 7.998-7.998 7.998zm-95.486 47.984c-4.42 0-8.076-3.576-8.076-7.996 0-4.422 3.498-7.998 7.904-7.998h.172a8.002 8.002 0 0 1 7.998 7.998 8.004 8.004 0 0 1-7.998 7.996zm95.486 0h-63.98a7.992 7.992 0 0 1-7.998-7.996 7.992 7.992 0 0 1 7.998-7.998h63.98a7.994 7.994 0 0 1 7.998 7.998 7.994 7.994 0 0 1-7.998 7.996zm-95.486 47.986c-4.42 0-8.076-3.578-8.076-7.998s3.498-7.998 7.904-7.998h.172c4.406 0 7.998 3.578 7.998 7.998s-3.594 7.998-7.998 7.998zm95.486 0h-63.98c-4.42 0-7.998-3.578-7.998-7.998s3.576-7.998 7.998-7.998h63.98c4.42 0 7.998 3.578 7.998 7.998s-3.578 7.998-7.998 7.998zm815.752-383.882H8.156c-4.42 0-7.998-3.578-7.998-7.998s3.578-7.998 7.998-7.998h1007.692c4.418 0 7.996 3.578 7.996 7.998s-3.578 7.998-7.996 7.998zm-767.766-31.99H56.14c-4.42 0-7.998-3.578-7.998-7.998s3.578-7.998 7.998-7.998h191.942c4.42 0 7.998 3.578 7.998 7.998s-3.58 7.998-7.998 7.998zM967.86 440.022H296.066a7.994 7.994 0 0 1-7.998-7.998V304.066a7.992 7.992 0 0 1 7.998-7.998H967.86c4.422 0 8 3.576 8 7.998v127.958a7.994 7.994 0 0 1-8 7.998zm-663.796-15.994h655.8V312.06h-655.8v111.968zm599.814-191.942H360.046c-4.42 0-7.998-3.578-7.998-7.998s3.576-7.998 7.998-7.998h543.832c4.422 0 8 3.578 8 7.998s-3.578 7.998-8 7.998zM352.034 559.984c-13.964 0-31.974-18.446-31.974-38.036 0-19.354 13.746-33.942 31.974-33.942 18.244 0 32.006 14.588 32.006 33.942 0 19.592-18.026 38.036-32.006 38.036zm0-55.982c-9.404 0-15.98 7.374-15.98 17.948 0 12.122 12.058 22.042 15.98 22.042 3.92 0 16.01-9.92 16.01-22.042 0-10.574-6.576-17.948-16.01-17.948z" fill="currentColor"/><path d="M397.722 577.356a8.736 8.736 0 0 1-1.67-.172c-34.334-7.232-36.004-11.058-36.004-17.2a7.992 7.992 0 0 1 7.998-7.996 7.93 7.93 0 0 1 6.044 2.764c3.782 1.672 15.59 4.732 25.274 6.78a8.008 8.008 0 0 1 6.17 9.482 8.004 8.004 0 0 1-7.812 6.342z" fill="currentColor"/><path d="M368.044 567.982a7.994 7.994 0 0 1-7.998-7.998V542.13a7.994 7.994 0 0 1 7.998-7.998 7.994 7.994 0 0 1 7.998 7.998v17.854a7.994 7.994 0 0 1-7.998 7.998zm-61.668 9.374a8 8 0 0 1-7.81-6.342 8.008 8.008 0 0 1 6.17-9.482c9.684-2.046 21.494-5.108 25.274-6.78a7.992 7.992 0 0 1 14.042 5.232c0 6.14-1.672 9.966-36.004 17.2a8.92 8.92 0 0 1-1.672.172z" fill="currentColor"/><path d="M336.054 567.982a7.994 7.994 0 0 1-7.998-7.998V542.13a7.994 7.994 0 0 1 7.998-7.998 7.994 7.994 0 0 1 7.998 7.998v17.854a7.994 7.994 0 0 1-7.998 7.998z" fill="currentColor"/><path d="M408.032 599.972H296.066a7.992 7.992 0 0 1-7.998-7.996V480.01a7.994 7.994 0 0 1 7.998-7.998h111.966a7.994 7.994 0 0 1 7.998 7.998v111.966a7.992 7.992 0 0 1-7.998 7.996zm-103.968-15.994h95.97v-95.97h-95.97v95.97zM967.86 504.002H456.016a7.994 7.994 0 0 1-7.998-7.998 7.992 7.992 0 0 1 7.998-7.996H967.86c4.422 0 8 3.576 8 7.996a7.994 7.994 0 0 1-8 7.998zM967.86 535.992H456.016a7.992 7.992 0 0 1-7.998-7.996 7.994 7.994 0 0 1 7.998-7.998H967.86c4.422 0 8 3.576 8 7.998a7.994 7.994 0 0 1-8 7.996zM711.938 567.982h-255.92a7.994 7.994 0 0 1-7.998-7.998 7.992 7.992 0 0 1 7.998-7.996h255.92c4.422 0 8 3.576 8 7.996a7.994 7.994 0 0 1-8 7.998zM352.034 719.938c-13.964 0-31.974-18.45-31.974-38.036 0-19.356 13.746-33.944 31.974-33.944 18.244 0 32.006 14.588 32.006 33.944 0 19.586-18.026 38.036-32.006 38.036zm0-55.984c-9.404 0-15.98 7.374-15.98 17.95 0 12.122 12.058 22.04 15.98 22.04 3.92 0 16.01-9.918 16.01-22.04 0-10.578-6.576-17.95-16.01-17.95z" fill="currentColor"/><path d="M397.722 737.306a8.736 8.736 0 0 1-1.67-.172c-34.334-7.232-36.004-11.06-36.004-17.198a7.994 7.994 0 0 1 7.998-7.998 7.924 7.924 0 0 1 6.044 2.764c3.782 1.672 15.59 4.734 25.274 6.78a8.006 8.006 0 0 1 6.17 9.482 8.004 8.004 0 0 1-7.812 6.342z" fill="currentColor"/><path d="M368.044 727.934a7.992 7.992 0 0 1-7.998-7.996v-17.856a7.992 7.992 0 0 1 7.998-7.996 7.992 7.992 0 0 1 7.998 7.996v17.856a7.992 7.992 0 0 1-7.998 7.996zm-61.668 9.372a8 8 0 0 1-7.81-6.342 8.008 8.008 0 0 1 6.17-9.482c9.684-2.044 21.494-5.108 25.274-6.78a7.956 7.956 0 0 1 6.044-2.764 7.994 7.994 0 0 1 7.998 7.998c0 6.136-1.672 9.964-36.004 17.198a8.756 8.756 0 0 1-1.672.172z" fill="currentColor"/><path d="M336.054 727.934a7.992 7.992 0 0 1-7.998-7.996v-17.856a7.992 7.992 0 0 1 7.998-7.996 7.992 7.992 0 0 1 7.998 7.996v17.856a7.992 7.992 0 0 1-7.998 7.996z" fill="currentColor"/><path d="M408.032 759.924H296.066a7.994 7.994 0 0 1-7.998-7.998V639.96a7.994 7.994 0 0 1 7.998-7.998h111.966a7.994 7.994 0 0 1 7.998 7.998v111.964c0 4.424-3.578 8-7.998 8zM304.064 743.93h95.97v-95.97h-95.97v95.97zM967.86 663.954H456.016a7.992 7.992 0 0 1-7.998-7.996 7.994 7.994 0 0 1 7.998-7.998H967.86c4.422 0 8 3.576 8 7.998a7.994 7.994 0 0 1-8 7.996zM711.938 695.944h-255.92a7.994 7.994 0 0 1-7.998-7.998 7.992 7.992 0 0 1 7.998-7.996h255.92c4.422 0 8 3.576 8 7.996a7.994 7.994 0 0 1-8 7.998zM919.876 360.046H344.052c-4.42 0-7.998-3.578-7.998-7.998s3.578-7.998 7.998-7.998h575.824c4.422 0 7.996 3.578 7.996 7.998s-3.576 7.998-7.996 7.998zM663.954 392.038H344.052c-4.42 0-7.998-3.578-7.998-7.998s3.578-7.998 7.998-7.998h319.902c4.422 0 8 3.578 8 7.998s-3.578 7.998-8 7.998zM519.996 839.898h-63.98a7.992 7.992 0 0 1-7.998-7.996v-63.98a7.994 7.994 0 0 1 7.998-7.998h63.98c4.422 0 8 3.576 8 7.998v63.98a7.994 7.994 0 0 1-8 7.996zm-55.982-15.994H512v-47.986h-47.986v47.986zM967.86 791.914H567.984c-4.422 0-8-3.576-8-7.998a7.994 7.994 0 0 1 8-7.998H967.86c4.422 0 8 3.578 8 7.998a7.994 7.994 0 0 1-8 7.998zM775.918 823.904H567.984c-4.422 0-8-3.576-8-7.998a7.994 7.994 0 0 1 8-7.996h207.934c4.422 0 8 3.576 8 7.996a7.994 7.994 0 0 1-8 7.998zM456.5 599.972c-4.42 0-8.076-3.576-8.076-7.996 0-4.422 3.5-7.998 7.904-7.998h.172a8.002 8.002 0 0 1 7.998 7.998 8 8 0 0 1-7.998 7.996zm79.492 0H489.35a7.992 7.992 0 0 1-7.998-7.996 7.994 7.994 0 0 1 7.998-7.998h46.642c4.422 0 8 3.576 8 7.998a7.994 7.994 0 0 1-8 7.996zM456.5 727.934c-4.42 0-8.076-3.576-8.076-7.996 0-4.422 3.5-7.998 7.904-7.998h.172a8.002 8.002 0 0 1 7.998 7.998 8 8 0 0 1-7.998 7.996zm79.492 0H489.35a7.992 7.992 0 0 1-7.998-7.996 7.994 7.994 0 0 1 7.998-7.998h46.642c4.422 0 8 3.576 8 7.998a7.994 7.994 0 0 1-8 7.996z" fill="currentColor"/></symbol><symbol viewBox="0 0 24 24" id="telegram" xmlns="http://www.w3.org/2000/svg"><path d="M12 0C5.373 0 0 5.373 0 12s5.373 12 12 12 12-5.373 12-12S18.627 0 12 0zm5.894 8.221-1.97 9.28c-.145.658-.537.818-1.084.508l-3-2.21-1.446 1.394a.759.759 0 0 1-.6.295h-.005l.213-3.054 5.56-5.022c.24-.213-.054-.334-.373-.121L8.32 13.617l-2.96-.924c-.64-.203-.658-.64.135-.954l11.566-4.458c.538-.196 1.006.128.832.941z" fill="currentColor"/></symbol><symbol viewBox="-1 0 24 24" id="webpack" xmlns="http://www.w3.org/2000/svg"><path d="M20.952 18.5 11.238 24v-4.286l6.048-3.334zm.666-.595V6.385L18.07 8.456v7.381l3.548 2.048zM.666 18.5 10.38 24v-4.286L4.332 16.38zM0 17.905V6.385l3.548 2.071v7.381zM.405 5.643 10.381 0v4.143L3.952 7.691zm20.809 0L11.238 0v4.143l6.428 3.548zM10.381 18.738l-5.972-3.287V8.927l5.976 3.452zm.857 0 5.976-3.286V8.928l-5.976 3.452zM4.809 8.19l6-3.31 6 3.31-6 3.453z" fill="currentColor"/></symbol><symbol viewBox="0 0 16 16" id="whatsapp" xmlns="http://www.w3.org/2000/svg"><path d="M11.42 9.49c-.19-.09-1.1-.54-1.27-.61s-.29-.09-.42.1-.48.6-.59.73-.21.14-.4 0a5.13 5.13 0 0 1-1.49-.92 5.25 5.25 0 0 1-1-1.29c-.11-.18 0-.28.08-.38s.18-.21.28-.32a1.39 1.39 0 0 0 .18-.31.38.38 0 0 0 0-.33c0-.09-.42-1-.58-1.37s-.3-.32-.41-.32h-.4a.72.72 0 0 0-.5.23 2.1 2.1 0 0 0-.65 1.55A3.59 3.59 0 0 0 5 8.2 8.32 8.32 0 0 0 8.19 11c.44.19.78.3 1.05.39a2.53 2.53 0 0 0 1.17.07 1.93 1.93 0 0 0 1.26-.88 1.67 1.67 0 0 0 .11-.88c-.05-.07-.17-.12-.36-.21z" fill="currentColor"/><path d="M13.29 2.68A7.36 7.36 0 0 0 8 .5a7.44 7.44 0 0 0-6.41 11.15l-1 3.85 3.94-1a7.4 7.4 0 0 0 3.55.9H8a7.44 7.44 0 0 0 5.29-12.72zM8 14.12a6.12 6.12 0 0 1-3.15-.87l-.22-.13-2.34.61.62-2.28-.14-.23a6.18 6.18 0 0 1 9.6-7.65 6.12 6.12 0 0 1 1.81 4.37A6.19 6.19 0 0 1 8 14.12z" fill="currentColor"/></symbol><symbol id="wordpress" viewBox="0 0 512 512" xml:space="preserve" xmlns="http://www.w3.org/2000/svg"><style>.tst0{fill:#000}</style><path class="tst0" d="M256.004 0C114.8.008.025 114.801 0 255.996.025 397.183 114.8 511.975 256.004 512c141.187-.025 255.98-114.817 255.996-256.004C511.984 114.801 397.191.008 256.004 0zm164.731 420.72c-42.256 42.241-100.456 68.354-164.731 68.362-64.284-.008-122.491-26.121-164.732-68.362-42.24-42.241-68.345-100.456-68.354-164.724.008-64.276 26.114-122.475 68.354-164.731C133.513 49.04 191.72 22.927 256.004 22.918c64.276.008 122.475 26.122 164.731 68.346 42.224 42.256 68.338 100.447 68.346 164.731-.008 64.269-26.121 122.484-68.346 164.725z" fill="currentColor"/><path class="tst0" d="M72.03 173.859h-1.445c-11.141 25.118-17.37 52.885-17.37 82.137 0 79.817 46.109 148.821 113.138 181.918L72.039 173.859h-.009zM371.166 182.392c-17.484-24.452-14.891-74.438 17.26-79.914-35.538-30.672-81.8-49.272-132.421-49.272-71.894 0-135.006 37.432-171.017 93.857h74.23v26.795h-29.919l69.269 193.887 48.59-129.884-22.878-64.004h-34.607v-26.795h124.225v26.795H281.54l69.855 195.573 35.401-94.572c6.277-25.492 2.608-66.891-15.63-92.466zM444.513 181.277c-.08.77-.16 1.549-.273 2.304-4.905 32.92-35.394 105.127-35.394 105.127l-44.143 117.996-9.849 26.346c62.004-34.686 103.939-100.946 103.939-177.054a201.956 201.956 0 0 0-14.28-74.719z" fill="currentColor"/><path class="tst0" d="m211.861 404.962-16.665 44.537c19.202 6.036 39.616 9.287 60.808 9.287 23.16 0 45.388-3.925 66.122-11.086l-61.675-172.654-48.59 129.916z" fill="currentColor"/></symbol></svg>